<?xml version="1.0" encoding="UTF-8"?>
<!DOCTYPE svg PUBLIC "-//W3C//DTD SVG 1.1//EN" "http://www.w3.org/Graphics/SVG/1.1/DTD/svg11.dtd">
<!-- Creator: CorelDRAW X7 -->
<svg xmlns="http://www.w3.org/2000/svg" xml:space="preserve" width="176.389mm" height="176.389mm" version="1.1" style="shape-rendering:geometricPrecision; text-rendering:geometricPrecision; image-rendering:optimizeQuality; fill-rule:evenodd; clip-rule:evenodd"
viewBox="0 0 17639 17639"
 xmlns:xlink="http://www.w3.org/1999/xlink">
 <defs>
  <style type="text/css">
   <![CDATA[
    .fil38 {fill:#FEFEFE;fill-rule:nonzero}
    .fil19 {fill:#F68D38;fill-rule:nonzero}
    .fil25 {fill:#DE8264;fill-rule:nonzero}
    .fil53 {fill:#BE7139;fill-rule:nonzero}
    .fil37 {fill:#9185BE;fill-rule:nonzero}
    .fil26 {fill:#655EA7;fill-rule:nonzero}
    .fil20 {fill:#575798;fill-rule:nonzero}
    .fil48 {fill:url(#id0)}
    .fil3 {fill:url(#id1)}
    .fil32 {fill:url(#id2)}
    .fil29 {fill:url(#id3)}
    .fil42 {fill:url(#id4)}
    .fil56 {fill:url(#id5)}
    .fil45 {fill:url(#id6)}
    .fil27 {fill:url(#id7)}
    .fil2 {fill:url(#id8)}
    .fil30 {fill:url(#id9)}
    .fil17 {fill:url(#id10)}
    .fil18 {fill:url(#id11)}
    .fil44 {fill:url(#id12)}
    .fil0 {fill:url(#id13)}
    .fil34 {fill:url(#id14)}
    .fil40 {fill:url(#id15)}
    .fil31 {fill:url(#id16)}
    .fil24 {fill:url(#id17)}
    .fil33 {fill:url(#id18)}
    .fil55 {fill:url(#id19)}
    .fil36 {fill:url(#id20)}
    .fil47 {fill:url(#id21)}
    .fil39 {fill:url(#id22)}
    .fil54 {fill:url(#id23)}
    .fil52 {fill:url(#id24)}
    .fil35 {fill:url(#id25)}
    .fil16 {fill:url(#id26)}
    .fil14 {fill:url(#id27)}
    .fil11 {fill:url(#id28)}
    .fil15 {fill:url(#id29)}
    .fil7 {fill:url(#id30)}
    .fil6 {fill:url(#id31)}
    .fil13 {fill:url(#id32)}
    .fil12 {fill:url(#id33)}
    .fil5 {fill:url(#id34)}
    .fil10 {fill:url(#id35)}
    .fil4 {fill:url(#id36)}
    .fil9 {fill:url(#id37)}
    .fil8 {fill:url(#id38)}
    .fil22 {fill:url(#id39)}
    .fil50 {fill:url(#id40)}
    .fil28 {fill:url(#id41)}
    .fil23 {fill:url(#id42)}
    .fil51 {fill:url(#id43)}
    .fil21 {fill:url(#id44)}
    .fil1 {fill:url(#id45)}
    .fil46 {fill:url(#id46)}
    .fil49 {fill:url(#id47)}
    .fil43 {fill:url(#id48)}
    .fil41 {fill:url(#id49)}
   ]]>
  </style>
  <linearGradient id="id0" gradientUnits="userSpaceOnUse" x1="5847.15" y1="7900.12" x2="6301.88" y2="7900.12">
   <stop offset="0" style="stop-opacity:1; stop-color:#FBBB86"/>
   <stop offset="1" style="stop-opacity:1; stop-color:#F69775"/>
  </linearGradient>
  <linearGradient id="id1" gradientUnits="userSpaceOnUse" x1="7296.27" y1="4876.62" x2="7296.27" y2="13354">
   <stop offset="0" style="stop-opacity:1; stop-color:#FEFEFE"/>
   <stop offset="0" style="stop-opacity:1; stop-color:#FEFEFE"/>
   <stop offset="1" style="stop-opacity:1; stop-color:#EDE9F4"/>
  </linearGradient>
  <linearGradient id="id2" gradientUnits="userSpaceOnUse" x1="11670.3" y1="9829.6" x2="11522.2" y2="10728.1">
   <stop offset="0" style="stop-opacity:1; stop-color:#354D8C"/>
   <stop offset="1" style="stop-opacity:1; stop-color:#333051"/>
   <stop offset="1" style="stop-opacity:1; stop-color:#333051"/>
  </linearGradient>
  <linearGradient id="id3" gradientUnits="userSpaceOnUse" xlink:href="#id0" x1="11246.1" y1="7496.96" x2="11226.7" y2="7302">
  </linearGradient>
  <linearGradient id="id4" gradientUnits="userSpaceOnUse" xlink:href="#id2" x1="5685.48" y1="6528.18" x2="5545.22" y2="7058.76">
  </linearGradient>
  <linearGradient id="id5" gradientUnits="userSpaceOnUse" x1="5809.06" y1="9031.24" x2="8136.24" y2="9031.24">
   <stop offset="0" style="stop-opacity:1; stop-color:#8877B5"/>
   <stop offset="1" style="stop-opacity:1; stop-color:#5858A4"/>
   <stop offset="1" style="stop-opacity:1; stop-color:#5858A4"/>
  </linearGradient>
  <linearGradient id="id6" gradientUnits="userSpaceOnUse" x1="6409.04" y1="14379.9" x2="5551.64" y2="14379.9">
   <stop offset="0" style="stop-opacity:1; stop-color:#FAAC40"/>
   <stop offset="1" style="stop-opacity:1; stop-color:#F68B38"/>
   <stop offset="1" style="stop-opacity:1; stop-color:#F68B38"/>
  </linearGradient>
  <linearGradient id="id7" gradientUnits="userSpaceOnUse" xlink:href="#id2" x1="10940.5" y1="14273.4" x2="11855.9" y2="14273.4">
  </linearGradient>
  <linearGradient id="id8" gradientUnits="userSpaceOnUse" xlink:href="#id5" x1="7296.27" y1="4692.7" x2="7296.27" y2="13538">
  </linearGradient>
  <linearGradient id="id9" gradientUnits="userSpaceOnUse" xlink:href="#id0" x1="10834.1" y1="6933.73" x2="11569.6" y2="6952.57">
  </linearGradient>
  <linearGradient id="id10" gradientUnits="userSpaceOnUse" x1="7423.34" y1="4434.76" x2="7423.34" y2="5066.54">
   <stop offset="0" style="stop-opacity:1; stop-color:#EDE9F4"/>
   <stop offset="1" style="stop-opacity:1; stop-color:#C4B8DA"/>
   <stop offset="1" style="stop-opacity:1; stop-color:#C4B8DA"/>
  </linearGradient>
  <linearGradient id="id11" gradientUnits="userSpaceOnUse" xlink:href="#id6" x1="12021.6" y1="8349.65" x2="12021.6" y2="13847.5">
  </linearGradient>
  <linearGradient id="id12" gradientUnits="userSpaceOnUse" xlink:href="#id2" x1="5550.64" y1="14227.7" x2="6409.02" y2="14227.7">
  </linearGradient>
  <linearGradient id="id13" gradientUnits="userSpaceOnUse" xlink:href="#id10" x1="8879.76" y1="3313.43" x2="9174.18" y2="13368.3">
  </linearGradient>
  <linearGradient id="id14" gradientUnits="userSpaceOnUse" xlink:href="#id5" x1="12097" y1="8392.73" x2="11426.1" y2="9554.51">
  </linearGradient>
  <linearGradient id="id15" gradientUnits="userSpaceOnUse" xlink:href="#id0" x1="5834.28" y1="13917.8" x2="5667.04" y2="13988">
  </linearGradient>
  <linearGradient id="id16" gradientUnits="userSpaceOnUse" xlink:href="#id5" x1="10425.7" y1="7716.68" x2="10473.8" y2="10161.9">
  </linearGradient>
  <linearGradient id="id17" gradientUnits="userSpaceOnUse" xlink:href="#id0" x1="8500.68" y1="9905.06" x2="8350.96" y2="9921.06">
  </linearGradient>
  <linearGradient id="id18" gradientUnits="userSpaceOnUse" xlink:href="#id0" x1="11731" y1="10591.3" x2="11408.9" y2="10464.2">
  </linearGradient>
  <linearGradient id="id19" gradientUnits="userSpaceOnUse" xlink:href="#id6" x1="7174.26" y1="13683.1" x2="7074.48" y2="13852.4">
  </linearGradient>
  <linearGradient id="id20" gradientUnits="userSpaceOnUse" xlink:href="#id2" x1="10058.6" y1="14273.4" x2="10974" y2="14273.4">
  </linearGradient>
  <linearGradient id="id21" gradientUnits="userSpaceOnUse" xlink:href="#id6" x1="7846.32" y1="14379.9" x2="6988.96" y2="14379.9">
  </linearGradient>
  <linearGradient id="id22" gradientUnits="userSpaceOnUse" xlink:href="#id5" x1="5822.19" y1="9460.39" x2="5929.05" y2="9457.81">
  </linearGradient>
  <linearGradient id="id23" gradientUnits="userSpaceOnUse" xlink:href="#id6" x1="5819.83" y1="13749.4" x2="5730.69" y2="13891.2">
  </linearGradient>
  <linearGradient id="id24" gradientUnits="userSpaceOnUse" xlink:href="#id2" x1="6106.2" y1="6707.42" x2="5595.9" y2="8438.42">
  </linearGradient>
  <linearGradient id="id25" gradientUnits="userSpaceOnUse" xlink:href="#id2" x1="10858" y1="6848.97" x2="11595.2" y2="6873.83">
  </linearGradient>
  <linearGradient id="id26" gradientUnits="userSpaceOnUse" x1="7407.38" y1="12358.6" x2="7407.38" y2="12582.2">
   <stop offset="0" style="stop-opacity:1; stop-color:#E8E3F1"/>
   <stop offset="0" style="stop-opacity:1; stop-color:#E8E3F1"/>
   <stop offset="1" style="stop-opacity:1; stop-color:#DDD3E8"/>
  </linearGradient>
  <linearGradient id="id27" gradientUnits="userSpaceOnUse" xlink:href="#id26" x1="7407.38" y1="11236.9" x2="7407.38" y2="11460.6">
  </linearGradient>
  <linearGradient id="id28" gradientUnits="userSpaceOnUse" xlink:href="#id26" x1="7407.38" y1="9554.38" x2="7407.38" y2="9778.08">
  </linearGradient>
  <linearGradient id="id29" gradientUnits="userSpaceOnUse" xlink:href="#id26" x1="7407.38" y1="11797.7" x2="7407.38" y2="12021.4">
  </linearGradient>
  <linearGradient id="id30" gradientUnits="userSpaceOnUse" xlink:href="#id26" x1="7407.38" y1="7311.12" x2="7407.38" y2="7534.76">
  </linearGradient>
  <linearGradient id="id31" gradientUnits="userSpaceOnUse" xlink:href="#id26" x1="7407.38" y1="6750.3" x2="7407.38" y2="6973.92">
  </linearGradient>
  <linearGradient id="id32" gradientUnits="userSpaceOnUse" xlink:href="#id26" x1="7407.38" y1="10676.1" x2="7407.38" y2="10899.7">
  </linearGradient>
  <linearGradient id="id33" gradientUnits="userSpaceOnUse" xlink:href="#id26" x1="7407.38" y1="10115.3" x2="7407.38" y2="10338.9">
  </linearGradient>
  <linearGradient id="id34" gradientUnits="userSpaceOnUse" xlink:href="#id26" x1="7407.38" y1="6189.45" x2="7407.38" y2="6413.11">
  </linearGradient>
  <linearGradient id="id35" gradientUnits="userSpaceOnUse" xlink:href="#id26" x1="7407.38" y1="8993.61" x2="7407.38" y2="9217.27">
  </linearGradient>
  <linearGradient id="id36" gradientUnits="userSpaceOnUse" xlink:href="#id26" x1="7407.38" y1="5628.64" x2="7407.38" y2="5852.26">
  </linearGradient>
  <linearGradient id="id37" gradientUnits="userSpaceOnUse" xlink:href="#id26" x1="7407.38" y1="8432.78" x2="7407.38" y2="8656.42">
  </linearGradient>
  <linearGradient id="id38" gradientUnits="userSpaceOnUse" xlink:href="#id26" x1="7407.38" y1="7871.92" x2="7407.38" y2="8095.58">
  </linearGradient>
  <linearGradient id="id39" gradientUnits="userSpaceOnUse" xlink:href="#id0" x1="8636.01" y1="9499.19" x2="8776.13" y2="9856.21">
  </linearGradient>
  <linearGradient id="id40" gradientUnits="userSpaceOnUse" xlink:href="#id5" x1="6339.02" y1="8146.26" x2="6059.48" y2="9978.52">
  </linearGradient>
  <linearGradient id="id41" gradientUnits="userSpaceOnUse" xlink:href="#id2" x1="10137.1" y1="12023" x2="11873.2" y2="12023">
  </linearGradient>
  <linearGradient id="id42" gradientUnits="userSpaceOnUse" xlink:href="#id0" x1="8314.86" y1="9824.49" x2="8273.92" y2="9828.41">
  </linearGradient>
  <linearGradient id="id43" gradientUnits="userSpaceOnUse" xlink:href="#id6" x1="7288.19" y1="11722" x2="5519.83" y2="12141">
  </linearGradient>
  <linearGradient id="id44" gradientUnits="userSpaceOnUse" xlink:href="#id0" x1="8393.88" y1="9630.6" x2="8475.3" y2="9886.58">
  </linearGradient>
  <linearGradient id="id45" gradientUnits="userSpaceOnUse" xlink:href="#id10" x1="9681.84" y1="12327.3" x2="8033.06" y2="16432.5">
  </linearGradient>
  <linearGradient id="id46" gradientUnits="userSpaceOnUse" xlink:href="#id2" x1="6987.94" y1="14227.7" x2="7846.3" y2="14227.7">
  </linearGradient>
  <linearGradient id="id47" gradientUnits="userSpaceOnUse" xlink:href="#id0" x1="6213.5" y1="6968.98" x2="5885.62" y2="7766.32">
  </linearGradient>
  <linearGradient id="id48" gradientUnits="userSpaceOnUse" xlink:href="#id2" x1="6767.5" y1="6978.96" x2="6298.44" y2="8136.66">
  </linearGradient>
  <linearGradient id="id49" gradientUnits="userSpaceOnUse" xlink:href="#id0" x1="7231.37" y1="13872.6" x2="7079.31" y2="13946.8">
  </linearGradient>
 </defs>
 <g id="Camada_x0020_1">
  <metadata id="CorelCorpID_0Corel-Layer"/>
  <path class="fil0" d="M5417 13724c-91,0 -182,-5 -272,-19 -94,-14 -177,-42 -256,-77l1382 0c0,0 -1,1 -2,1 -281,40 -567,95 -852,95zm5507 -117c-136,0 -272,-1 -408,-4 75,-39 126,-117 126,-207l0 -8561c0,-129 -104,-233 -232,-233l-5442 0c545,-300 1064,-653 1608,-957 679,-379 1423,-688 2193,-688 27,0 54,1 80,2 260,7 529,54 744,205 441,311 534,961 939,1320 269,238 616,305 978,305 244,0 495,-31 733,-61 173,-22 355,-38 535,-38 435,0 860,94 1125,428 331,418 262,1032 473,1524 191,444 590,748 907,1109 320,366 563,803 705,1272 114,373 164,777 74,1157 -90,375 -310,702 -527,1019 -524,765 -1088,1555 -1905,1971 -508,259 -1081,353 -1646,398 -353,29 -706,39 -1060,39zm-6974 -374c-472,-165 -928,-336 -1324,-692 -575,-515 -893,-1419 -519,-2101 333,-605 1128,-925 1239,-1611 86,-528 -285,-1008 -432,-1521 -206,-716 70,-1551 658,-1991 119,-88 247,-161 378,-226l0 8142z"/>
  <path class="fil1" d="M14042 14380c0,166 -2321,301 -5185,301 -2863,0 -5184,-135 -5184,-301 0,-167 2321,-302 5184,-302 2864,0 5185,135 5185,302z"/>
  <path class="fil2" d="M10410 13628l-6227 0c-129,0 -233,-104 -233,-232l0 -8561c0,-129 104,-233 233,-233l6227 0c128,0 232,104 232,233l0 8561c0,90 -51,168 -126,207 -32,16 -68,25 -106,25zm-6189 -8838c-32,0 -57,26 -57,57l0 8536c0,32 25,58 57,58l6151 0c31,0 57,-26 57,-58l0 -8536c0,-31 -26,-57 -57,-57l-6151 0z"/>
  <path class="fil3" d="M10372 13441l-6151 0c-32,0 -57,-26 -57,-58l0 -8536c0,-31 25,-57 57,-57l6151 0c31,0 57,26 57,57l0 8536c0,32 -26,58 -57,58zm-5639 -1082l0 223 5349 0 0 -223 -5349 0zm0 -561l0 223 5349 0 0 -223 -5349 0zm0 -561l0 224 5349 0 0 -224 -5349 0zm0 -561l0 224 5349 0 0 -224 -5349 0zm0 -561l0 224 5349 0 0 -224 -5349 0zm0 -561l0 224 5349 0 0 -224 -5349 0zm0 -560l0 223 5349 0 0 -223 -5349 0zm0 -561l0 223 5349 0 0 -223 -5349 0zm0 -561l0 224 5349 0 0 -224 -5349 0zm0 -561l0 224 5349 0 0 -224 -5349 0zm0 -561l0 224 5349 0 0 -224 -5349 0zm0 -561l0 224 5349 0 0 -224 -5349 0zm0 -560l0 223 5349 0 0 -223 -5349 0z"/>
  <polygon class="fil4" points="4733,5852 10082,5852 10082,5629 4733,5629 "/>
  <polygon class="fil5" points="4733,6413 10082,6413 10082,6189 4733,6189 "/>
  <polygon class="fil6" points="4733,6974 10082,6974 10082,6750 4733,6750 "/>
  <polygon class="fil7" points="4733,7535 10082,7535 10082,7311 4733,7311 "/>
  <polygon class="fil8" points="4733,8096 10082,8096 10082,7872 4733,7872 "/>
  <polygon class="fil9" points="4733,8656 10082,8656 10082,8433 4733,8433 "/>
  <polygon class="fil10" points="4733,9217 10082,9217 10082,8994 4733,8994 "/>
  <polygon class="fil11" points="4733,9778 10082,9778 10082,9554 4733,9554 "/>
  <polygon class="fil12" points="4733,10339 10082,10339 10082,10115 4733,10115 "/>
  <polygon class="fil13" points="4733,10900 10082,10900 10082,10676 4733,10676 "/>
  <polygon class="fil14" points="4733,11461 10082,11461 10082,11237 4733,11237 "/>
  <polygon class="fil15" points="4733,12021 10082,12021 10082,11798 4733,11798 "/>
  <polygon class="fil16" points="4733,12582 10082,12582 10082,12359 4733,12359 "/>
  <path class="fil17" d="M8876 5073l-2905 0c-110,0 -199,-89 -199,-199l0 -247c0,-110 89,-199 199,-199l2905 0c109,0 199,89 199,199l0 247c0,110 -90,199 -199,199z"/>
  <path class="fil18" d="M14436 13904l-4828 0c-109,0 -196,-91 -191,-200l225 -5149c6,-146 127,-261 274,-261l4212 0c146,0 267,115 273,261l226 5149c4,109 -83,200 -191,200z"/>
  <path class="fil19" d="M13132 8964c-29,0 -53,-24 -53,-53l0 -1111c0,-583 -474,-1058 -1057,-1058 -584,0 -1058,475 -1058,1058l0 1111c0,29 -24,53 -53,53 -29,0 -53,-24 -53,-53l0 -1111c0,-642 522,-1164 1164,-1164 641,0 1163,522 1163,1164l0 1111c0,29 -23,53 -53,53z"/>
  <path class="fil20" d="M7012 4329c-7,0 -13,-6 -13,-13 0,-8 6,-14 13,-14 25,0 49,0 74,0 23,0 45,0 68,0 7,0 13,6 13,13 0,8 -6,14 -14,14 -23,-1 -47,-1 -70,-1 -23,0 -47,0 -71,1l0 0zm494 18l-1 0c-47,-4 -94,-8 -141,-11 -7,0 -13,-6 -12,-14 0,-7 5,-12 14,-12 47,3 94,6 141,11 7,0 13,7 12,14 0,7 -6,12 -13,12zm-846 2c-7,0 -13,-5 -13,-12 -1,-7 4,-14 11,-15 47,-4 95,-8 142,-11 7,-1 13,5 14,12 0,7 -5,14 -12,14 -47,3 -94,7 -141,12l-1 0zm1196 41l-2 0c-46,-7 -93,-14 -139,-20 -8,-1 -13,-8 -12,-15 1,-7 8,-12 15,-11 47,6 94,13 140,20 7,1 12,8 11,15 -1,7 -7,11 -13,11zm-1545 9c-7,0 -12,-4 -13,-11 -2,-7 3,-14 10,-15 46,-9 93,-17 140,-24 7,-1 14,4 15,11 1,7 -4,14 -11,15 -47,7 -94,15 -139,24l-2 0zm1891 58l-2 0c-46,-11 -92,-20 -138,-30 -7,-1 -12,-8 -11,-15 2,-7 9,-12 16,-10 46,9 93,19 138,29 8,1 12,9 10,16 -1,6 -6,10 -13,10zm-2234 24c-6,0 -12,-4 -13,-10 -2,-7 2,-14 9,-16 45,-13 91,-26 137,-37 7,-2 14,3 16,10 1,7 -3,14 -10,16 -45,11 -91,23 -136,36l-3 1zm2576 64l-3 -1c-45,-13 -91,-25 -136,-37 -7,-2 -11,-9 -10,-16 2,-8 9,-12 17,-10 45,12 91,25 136,38 7,2 11,9 9,16 -2,6 -7,10 -13,10zm-2910 49c-6,0 -11,-3 -13,-8 -2,-7 1,-15 8,-17 43,-18 88,-34 133,-50 6,-2 14,1 16,8 3,7 -1,15 -8,17 -44,16 -88,32 -131,49l-5 1zm3246 58l-4 -1c-44,-15 -89,-30 -134,-45 -6,-2 -10,-10 -8,-17 2,-7 10,-10 17,-8 45,15 90,30 134,45 7,3 10,10 8,17 -2,5 -7,9 -13,9zm-3567 87c-5,0 -10,-2 -12,-7 -3,-6 -1,-14 6,-18 41,-21 84,-42 127,-62 6,-3 14,0 17,7 3,6 1,14 -6,17 -43,20 -85,41 -126,62l-6 1zm3897 39l-5 -1c-43,-18 -87,-36 -131,-53 -7,-2 -10,-10 -7,-17 2,-7 10,-10 17,-7 44,17 88,34 131,52 7,3 10,11 7,17 -2,6 -7,9 -12,9zm-4203 137c-4,0 -9,-2 -11,-6 -4,-6 -2,-14 4,-18 40,-26 80,-51 121,-74 6,-4 14,-2 18,4 3,7 1,15 -5,19 -40,23 -80,48 -120,73l-7 2zm4525 6l-6 -1c-41,-20 -84,-40 -127,-59 -7,-3 -10,-11 -7,-18 3,-7 11,-9 18,-7 43,20 86,40 128,60 6,3 9,11 6,18 -2,5 -7,7 -12,7zm314 162l-7 -1c-40,-23 -81,-45 -124,-67 -6,-4 -9,-12 -5,-18 3,-7 11,-9 18,-6 42,23 84,45 124,67 7,4 9,12 5,18 -2,5 -7,7 -11,7zm-5127 36c-3,0 -7,-2 -10,-5 -4,-6 -3,-14 2,-19 38,-29 76,-57 113,-85 6,-4 15,-3 19,3 4,6 3,14 -3,19 -38,27 -75,55 -112,84l-9 3zm5416 165l-9 -3c-35,-31 -72,-61 -109,-88 -6,-4 -7,-12 -3,-18 4,-6 13,-7 19,-3 37,27 75,57 111,89 5,4 6,13 1,18 -3,3 -6,5 -10,5zm-5684 64c-3,0 -7,-1 -9,-4 -5,-6 -5,-14 0,-19 35,-32 70,-64 106,-95 5,-4 13,-4 18,2 5,5 4,13 -1,18 -35,31 -70,62 -104,94 -3,3 -6,4 -10,4zm5924 193c-4,0 -8,-2 -10,-5 -30,-38 -60,-74 -90,-108 -5,-5 -4,-13 1,-18 5,-5 14,-5 19,1 30,34 61,71 91,109 4,5 3,14 -3,18l-8 3zm-6171 58l-9 -4c-6,-5 -6,-13 -1,-18 32,-35 65,-70 97,-103 5,-6 13,-6 19,-1 5,5 5,14 0,19 -32,33 -65,68 -96,102 -3,3 -7,5 -10,5zm6366 236c-5,0 -9,-3 -11,-7 -24,-41 -49,-82 -73,-120 -4,-6 -2,-15 4,-18 6,-4 14,-3 18,4 25,38 50,79 74,121 3,6 1,14 -5,18l-7 2zm-6594 33l-8 -3c-5,-4 -6,-13 -2,-18 29,-38 59,-74 89,-110 4,-6 13,-7 18,-2 6,5 7,13 2,19 -30,35 -59,72 -88,109 -3,3 -7,5 -11,5zm6754 281c-5,0 -10,-3 -13,-8 -19,-43 -39,-86 -60,-127 -3,-7 0,-14 6,-18 7,-3 15,0 18,6 20,41 41,84 61,128 3,7 0,15 -7,18l-5 1zm-6961 4l-8 -2c-6,-4 -7,-13 -3,-19 27,-39 54,-78 81,-116 4,-6 12,-7 18,-3 6,5 8,13 3,19 -27,38 -54,76 -80,115 -3,4 -7,6 -11,6zm-189 298l-7 -2c-6,-4 -8,-12 -5,-18 25,-41 49,-82 74,-121 4,-6 12,-8 18,-4 6,4 8,12 4,18 -24,39 -49,79 -73,120 -2,4 -7,7 -11,7zm7284 24c-5,0 -10,-3 -12,-8 -17,-44 -34,-88 -52,-132 -2,-6 1,-14 8,-17 6,-2 14,1 17,8 18,43 35,87 51,131 3,7 0,15 -7,17l-5 1zm-7456 284l-6 -2c-6,-3 -9,-11 -5,-18 22,-42 44,-83 66,-124 4,-7 12,-9 18,-5 7,3 9,11 6,17 -23,41 -45,83 -67,125 -2,4 -7,7 -12,7zm7575 48c-5,0 -10,-3 -12,-9 -15,-44 -31,-88 -47,-133 -2,-7 2,-14 8,-17 7,-2 15,2 17,8 16,45 32,90 47,134 2,7 -2,14 -8,17l-5 0zm-7721 272l-5 -1c-7,-2 -10,-10 -8,-17 16,-44 34,-89 53,-131 3,-7 11,-10 18,-7 6,3 9,11 6,18 -18,42 -36,85 -52,129 -2,6 -7,9 -12,9zm-90 341l-2 0c-7,-2 -12,-8 -11,-16 8,-46 18,-93 29,-139 2,-7 9,-11 16,-9 7,1 11,9 10,16 -11,45 -21,91 -29,137 -1,6 -7,11 -13,11zm-32 351l0 0c-7,0 -13,-6 -13,-14 1,-47 3,-95 6,-141 1,-8 7,-13 14,-13 8,1 13,7 12,15 -3,46 -5,93 -6,140 0,7 -6,13 -13,13zm21 352c-7,0 -13,-5 -13,-12 -6,-47 -11,-94 -15,-141 0,-7 5,-14 13,-14 8,0 13,5 14,12 3,46 8,93 14,140 1,7 -4,14 -12,15l-1 0zm67 346c-6,0 -11,-4 -13,-10 -12,-46 -22,-92 -32,-138 -2,-7 3,-14 10,-16 8,-1 14,3 16,11 9,45 20,91 32,136 2,7 -3,15 -10,16l-3 1zm110 335c-6,0 -11,-3 -13,-8 -17,-44 -33,-89 -49,-133 -2,-7 2,-15 9,-17 7,-3 14,1 16,8 16,44 32,89 49,132 3,7 -1,14 -7,17l-5 1zm695 112c-7,0 -12,-5 -13,-12 0,-7 5,-13 12,-14 40,-3 79,-6 118,-8l23 -2c9,0 14,6 14,13 1,7 -5,13 -12,14l-24 1c-38,3 -78,5 -117,8l-1 0zm493 3l-2 0c-44,-6 -90,-11 -139,-13 -7,0 -13,-7 -12,-14 0,-7 6,-13 13,-13 50,3 97,7 142,14 7,1 12,8 11,15 -1,6 -6,11 -13,11zm-843 39c-6,0 -12,-4 -13,-11 -1,-7 4,-14 11,-15 44,-8 92,-15 140,-21 7,0 14,5 15,12 1,7 -4,14 -12,15 -48,6 -95,13 -139,20l-2 0zm1176 71l-7 -2c-37,-23 -79,-43 -125,-59 -7,-3 -10,-10 -8,-17 3,-7 10,-11 17,-8 48,17 92,38 130,62 6,3 8,12 4,18 -2,4 -7,6 -11,6zm-1373 95c-4,0 -9,-3 -11,-7 -18,-33 -35,-66 -51,-99 -27,7 -53,16 -79,24 -7,3 -14,-1 -16,-8 -3,-7 1,-14 8,-17 24,-8 49,-16 75,-24l-2 -3c-3,-6 0,-14 7,-17 6,-3 14,-1 17,6l4 7c11,-3 23,-6 35,-9 7,-2 14,2 16,9 2,7 -2,14 -9,16 -11,3 -21,5 -31,8 16,32 32,63 49,94 3,7 1,15 -5,18l-7 2zm-462 70c-5,0 -9,-2 -12,-6 -4,-6 -2,-14 4,-18 39,-25 81,-49 124,-71 7,-3 14,0 18,6 3,7 0,15 -6,18 -42,21 -83,45 -121,69l-7 2zm2042 109c-6,0 -12,-4 -13,-10 -4,-15 -9,-31 -15,-46 -10,-28 -24,-54 -39,-78 -4,-7 -2,-15 4,-19 6,-4 14,-2 18,4 17,26 31,54 42,84 6,16 11,32 16,49 1,7 -3,14 -10,16l-3 0zm-1393 120c-4,0 -9,-2 -11,-6 -22,-30 -45,-63 -66,-96l-14 -21c-4,-6 -2,-14 4,-18 6,-4 15,-2 19,4l13 21c21,33 43,65 65,95 5,6 3,14 -3,18l-7 3zm-914 3l-9 -3c-5,-5 -6,-13 -1,-19 31,-36 64,-71 99,-103 5,-5 13,-4 18,1 5,5 5,14 0,19 -34,31 -67,65 -97,100 -3,3 -6,5 -10,5zm2253 218l-7 -2c-6,-3 -9,-11 -5,-18 23,-41 40,-84 51,-127 1,-7 9,-12 16,-10 7,2 11,9 9,16 -11,46 -29,91 -53,134 -2,4 -7,7 -11,7zm-1105 41l-9 -3c-34,-30 -68,-63 -102,-99 -5,-6 -4,-14 1,-19 6,-5 14,-5 19,1 33,35 66,68 100,97 5,5 6,13 1,19 -3,3 -6,4 -10,4zm-1339 36l-6 -1c-7,-4 -9,-11 -6,-18 21,-43 44,-85 68,-125 4,-6 12,-8 18,-4 6,3 8,11 4,18 -23,39 -46,80 -66,122 -3,5 -7,8 -12,8zm1637 150l-5 -1c-33,-13 -66,-28 -98,-45 -10,-5 -21,-11 -31,-17 -6,-4 -8,-12 -4,-18 3,-7 11,-9 18,-5 10,6 20,12 30,17 30,16 62,31 95,44 6,2 10,10 7,17 -2,5 -7,8 -12,8zm550 6c-5,0 -10,-3 -12,-8 -3,-7 0,-15 7,-18 13,-5 26,-11 39,-18 27,-14 54,-32 79,-52 5,-4 14,-4 18,2 5,6 4,14 -2,19 -26,21 -54,39 -83,54 -13,7 -27,14 -40,20l-6 1zm-255 51c-30,-1 -61,-2 -92,-6 -7,0 -12,-7 -12,-14 1,-7 8,-13 15,-12 29,4 59,5 87,5 19,0 34,0 51,-1 8,-1 14,4 15,12 0,7 -5,13 -13,14 -17,1 -34,2 -51,2zm-2051 125l-3 -1c-7,-1 -11,-9 -9,-16 11,-46 24,-92 39,-136 2,-7 10,-11 17,-9 7,3 10,10 8,17 -14,43 -27,89 -39,135 -1,6 -7,10 -13,10zm-56 348l-1 0c-7,-1 -12,-7 -12,-15 4,-47 9,-95 16,-141 1,-7 7,-12 15,-11 7,1 12,8 11,15 -6,45 -12,92 -16,140 0,7 -6,12 -13,12zm-5 352c-7,0 -13,-5 -13,-12 -3,-46 -4,-92 -4,-137l0 -5c0,-7 6,-13 14,-13 7,0 13,6 13,13l0 5c0,45 1,90 3,136 0,7 -5,13 -13,13l0 0zm37 351c-7,0 -12,-5 -13,-11 -8,-46 -14,-94 -20,-140 -1,-8 4,-14 12,-15 7,-1 13,4 14,11 6,47 12,94 20,140 1,7 -4,14 -11,15l-2 0zm89 341c-6,0 -11,-4 -13,-9 -16,-45 -31,-90 -44,-135 -2,-7 2,-14 9,-16 7,-2 14,2 16,9 13,44 28,89 44,133 3,7 -1,14 -8,17l-4 1zm154 316c-5,0 -9,-2 -12,-6 -24,-41 -48,-83 -69,-124 -3,-7 0,-15 6,-18 6,-3 15,-1 18,6 21,41 44,82 68,122 4,7 2,15 -5,19l-6 1zm205 287c-4,0 -7,-2 -10,-5 -30,-36 -60,-73 -88,-111 -4,-6 -3,-14 3,-19 5,-4 14,-3 18,3 28,37 57,74 87,110 5,6 4,14 -1,19l-9 3zm245 253l-8 -3c-36,-32 -70,-65 -103,-98 -5,-5 -5,-13 0,-19 5,-5 13,-5 18,0 33,33 67,66 102,97 6,5 6,13 1,19 -2,3 -6,4 -10,4zm278 218l-8 -2c-38,-26 -76,-54 -115,-83 -6,-5 -7,-13 -2,-19 4,-5 12,-7 18,-2 38,29 76,56 114,82 6,4 8,12 4,18 -3,4 -7,6 -11,6zm2243 1c-6,0 -11,-4 -13,-10 -2,-7 2,-14 9,-16 48,-13 93,-25 137,-36 7,-2 14,2 16,9 2,7 -2,14 -9,16 -44,11 -89,23 -137,36l-3 1zm-340 94c-6,0 -12,-4 -13,-10 -2,-7 2,-15 9,-16 47,-13 92,-25 136,-38 7,-2 15,3 17,10 1,7 -3,14 -10,16 -44,12 -90,25 -136,37l-3 1zm-1595 77l-5 -1c-41,-17 -84,-38 -129,-62 -6,-4 -8,-12 -5,-18 4,-7 12,-9 18,-6 44,24 86,45 126,62 7,2 10,10 7,17 -2,5 -7,8 -12,8zm1252 7c-6,0 -12,-5 -13,-11 -1,-7 3,-14 10,-15 46,-11 92,-21 137,-32 7,-2 15,3 16,10 2,7 -2,14 -9,16 -46,11 -92,21 -138,31l-3 1zm-347 61c-7,0 -13,-4 -14,-11 0,-7 5,-14 12,-15 45,-6 92,-13 139,-21 7,-1 14,4 15,11 2,7 -3,14 -11,15 -47,8 -94,15 -140,21l-1 0zm-563 14l-2 0c-48,-5 -95,-12 -140,-21 -8,-2 -12,-9 -11,-16 2,-7 8,-12 16,-10 44,9 91,16 138,21 7,1 13,7 12,14 -1,7 -7,12 -13,12zm211 11c-7,0 -13,-6 -13,-13 0,-8 6,-13 13,-13 45,0 92,-2 140,-5 8,-1 14,5 14,13 1,7 -5,13 -12,14 -49,3 -97,4 -142,4z"/>
  <path class="fil20" d="M12802 7734l-1 0c-46,-3 -93,-5 -141,-6 -7,0 -13,-6 -13,-13 0,-7 6,-13 14,-13l0 0c47,1 95,3 141,5 8,1 13,7 13,14 -1,7 -6,13 -13,13zm-494 2c-7,0 -13,-6 -13,-13 -1,-7 5,-13 12,-14 47,-3 94,-5 142,-6 6,0 13,6 13,13 0,7 -5,13 -13,14 -47,1 -93,3 -140,6l-1 0zm-352 29c-6,0 -12,-5 -13,-12 -1,-7 5,-14 12,-15 47,-5 94,-9 141,-13 7,-1 13,4 14,12 1,7 -5,13 -12,14 -47,4 -94,9 -140,14l-2 0zm1196 8l-2 0c-46,-8 -92,-15 -139,-21 -8,-1 -13,-7 -12,-14 1,-8 8,-13 15,-12 47,6 94,13 140,21 7,1 12,8 11,15 -1,6 -7,11 -13,11zm343 83l-4 -1c-45,-14 -90,-27 -135,-39 -7,-2 -12,-9 -10,-16 2,-7 9,-11 16,-9 46,11 92,25 137,39 7,2 10,9 8,16 -2,6 -7,10 -12,10zm322 141l-7 -2c-40,-25 -82,-47 -123,-66 -7,-3 -10,-11 -6,-17 3,-7 10,-10 17,-7 42,19 85,42 126,67 6,4 8,12 4,18 -2,5 -7,7 -11,7zm273 221c-3,0 -7,-1 -9,-4 -33,-34 -67,-66 -102,-96 -6,-4 -6,-13 -1,-18 4,-6 13,-7 18,-2 36,30 71,63 104,98 5,5 5,13 0,18 -3,3 -6,4 -10,4zm217 278c-4,0 -8,-3 -11,-7 -25,-39 -52,-78 -79,-115 -5,-6 -3,-14 2,-19 6,-4 15,-3 19,3 28,37 55,77 80,117 4,6 2,15 -4,18l-7 3zm160 314c-5,0 -10,-4 -12,-9 -18,-43 -37,-87 -57,-128 -3,-6 0,-14 6,-18 7,-3 15,0 18,7 20,41 39,85 57,129 3,7 0,15 -7,18l-5 1zm103 337c-6,0 -12,-5 -13,-11 -10,-46 -22,-91 -34,-136 -2,-7 2,-14 9,-16 7,-2 14,2 16,9 13,45 25,91 35,138 1,7 -3,14 -11,15l-2 1zm47 349c-7,0 -13,-6 -13,-13 -3,-46 -7,-93 -13,-139 0,-8 5,-14 12,-15 7,-1 14,4 15,11 5,47 10,95 12,142 1,7 -5,13 -12,14l-1 0zm-702 282c-7,0 -13,-5 -14,-12 0,-7 5,-13 12,-14 47,-5 95,-8 143,-7 7,0 13,6 13,14 0,7 -7,14 -14,13 -46,-1 -93,1 -139,6l-1 0zm485 61l-5 -1c-43,-17 -87,-30 -133,-41 -7,-2 -11,-9 -10,-16 2,-7 9,-11 16,-10 47,11 93,25 137,43 6,2 10,10 7,17 -2,5 -7,8 -12,8zm212 9l-1 0c-7,0 -13,-7 -12,-14 4,-46 6,-94 8,-140 0,-7 6,-13 13,-13l0 0c8,0 14,6 13,13 -1,48 -4,95 -8,142 0,7 -6,12 -13,12zm-1037 22c-5,0 -9,-3 -12,-8 -3,-7 0,-14 7,-17 43,-20 88,-36 134,-50 7,-2 14,2 16,9 2,7 -2,14 -9,16 -44,14 -88,30 -130,49l-6 1zm1115 165c-4,0 -8,-2 -10,-5 -30,-33 -64,-65 -103,-93 -5,-4 -7,-12 -2,-18 4,-6 12,-7 18,-3 40,29 76,62 106,97 5,5 5,13 -1,18l-8 4zm-1369 63l-4 0c-7,-2 -11,-10 -9,-17 3,-9 6,-18 10,-27 16,-34 39,-66 69,-96 6,-5 14,-4 19,1 5,5 5,13 0,18 -28,27 -50,57 -63,88 -4,8 -7,16 -9,24 -2,6 -8,9 -13,9zm1216 93l-5 -1c-7,-3 -10,-11 -7,-18 18,-39 33,-82 44,-131 2,-7 9,-11 16,-10 7,2 11,9 10,16 -12,51 -27,95 -46,136 -2,5 -7,8 -12,8zm307 157c-6,0 -11,-4 -13,-10 -11,-47 -25,-92 -43,-132 -2,-7 1,-15 7,-18 7,-3 15,1 18,7 18,43 32,88 44,136 2,8 -3,15 -10,16l-3 1zm-1419 69c-4,0 -7,-1 -9,-3 -36,-33 -66,-73 -87,-117 -3,-7 0,-15 7,-18 6,-3 14,0 17,6 19,41 47,79 81,109 5,5 5,13 0,19 -2,3 -6,4 -9,4zm871 23c-5,0 -9,-3 -11,-7 -4,-6 -2,-14 5,-18 42,-23 80,-49 113,-79 5,-5 14,-4 18,1 5,6 5,14 -1,19 -34,31 -74,58 -118,82l-6 2zm-336 99c-7,0 -13,-5 -13,-12 -1,-7 4,-13 11,-14 48,-5 94,-13 138,-24 7,-2 14,3 16,10 1,7 -3,14 -10,16 -45,11 -92,19 -141,24l-1 0zm-211 2l-2 0c-51,-5 -98,-14 -141,-26 -7,-2 -11,-9 -9,-16 2,-7 10,-11 17,-9 41,12 87,20 136,24 7,1 12,7 12,15 -1,7 -7,12 -13,12zm1125 157l0 0c-8,0 -13,-6 -13,-13 1,-20 1,-40 1,-60 0,-27 -1,-54 -2,-80 0,-8 5,-14 12,-14 7,-1 14,5 14,12 2,27 2,55 2,82 0,20 0,40 -1,60 0,8 -6,13 -13,13zm-41 350l-3 0c-7,-1 -11,-8 -10,-16 9,-45 17,-92 23,-138 1,-7 8,-12 15,-11 7,1 12,7 11,15 -6,46 -14,93 -23,140 -1,6 -7,10 -13,10zm-96 339l-5 -1c-7,-2 -10,-10 -8,-17 17,-43 32,-88 45,-133 2,-7 10,-10 17,-8 7,2 10,9 8,16 -13,45 -28,90 -45,135 -2,5 -7,8 -12,8zm-149 320l-7 -2c-6,-4 -8,-12 -5,-18 23,-41 45,-83 66,-124 3,-7 11,-10 17,-6 7,3 10,11 6,17 -20,42 -42,85 -66,126 -2,4 -7,7 -11,7zm-198 291l-8 -3c-6,-5 -7,-13 -3,-19 30,-36 58,-74 85,-112 4,-6 12,-7 18,-3 6,4 7,13 3,19 -27,38 -55,76 -85,113 -2,3 -6,5 -10,5zm-239 259c-4,0 -8,-2 -10,-5 -5,-5 -5,-13 0,-18 35,-33 68,-66 100,-99 5,-5 13,-6 19,-1 5,6 5,14 0,19 -32,34 -66,67 -100,100 -3,2 -6,4 -9,4zm-273 224c-4,0 -8,-2 -10,-6 -5,-5 -3,-14 3,-18 38,-28 75,-56 111,-85 6,-5 14,-4 19,2 5,6 4,14 -2,18 -36,30 -74,59 -113,86l-8 3zm-296 191c-5,0 -9,-3 -12,-7 -3,-6 -1,-14 5,-18 41,-23 82,-47 121,-72 6,-4 14,-2 18,4 4,6 2,14 -4,18 -40,25 -80,50 -122,73l-6 2zm-315 160c-5,0 -9,-3 -12,-8 -3,-7 0,-15 7,-18 43,-19 86,-39 127,-60 7,-3 15,0 18,6 3,7 0,15 -6,18 -42,21 -85,41 -128,61l-6 1zm-327 131c-5,0 -11,-3 -12,-9 -3,-7 1,-14 8,-17 44,-15 88,-32 131,-49 7,-2 15,1 18,8 2,7 -1,14 -8,17 -43,17 -88,34 -133,49l-4 1zm-337 105c-5,0 -11,-3 -12,-9 -2,-7 2,-15 9,-17 45,-12 90,-25 135,-39 7,-2 14,2 17,9 2,7 -2,15 -9,17 -45,13 -91,27 -136,39l-4 0zm-343 82c-6,0 -11,-4 -13,-11 -1,-7 3,-14 11,-15 46,-10 91,-20 137,-30 7,-2 14,3 16,10 2,7 -3,14 -10,16 -46,10 -92,20 -138,30l-3 0zm-347 61c-7,0 -12,-5 -13,-11 -1,-8 4,-14 11,-15 46,-7 93,-14 139,-22 7,-1 14,3 15,11 2,7 -3,14 -11,15 -46,8 -93,15 -139,22l-2 0zm-350 41c-7,0 -13,-5 -14,-12 0,-8 5,-14 12,-15 47,-4 94,-8 140,-13 8,-1 14,4 15,11 1,8 -4,14 -12,15 -46,5 -93,10 -140,14l-1 0z"/>
  <path class="fil21" d="M8536 9555c-31,-31 -65,-28 -111,-7 -45,22 -82,34 -120,34 -38,0 -139,-53 -139,-53l-65 149c0,0 284,184 323,211 39,26 93,93 122,99 30,6 225,-77 222,-162 -9,-26 -77,-90 -106,-119 -29,-29 -54,-51 -72,-61 -17,-11 -54,-91 -54,-91z"/>
  <path class="fil22" d="M8544 9529c-48,3 -115,59 -115,93 0,33 -3,99 34,99 38,0 40,-64 56,-80 17,-17 91,9 121,49 30,40 128,136 128,136 0,0 147,-63 215,-54 0,-9 -77,-168 -77,-168 -124,0 -299,-79 -362,-75z"/>
  <path class="fil23" d="M8292 9795c-28,7 -51,56 -18,65 33,9 69,-28 53,-50 -16,-23 -20,-20 -35,-15z"/>
  <path class="fil24" d="M8341 9837c-32,5 -35,63 0,86 34,24 124,78 153,65 29,-13 52,-23 37,-47 -15,-24 -131,-115 -190,-104z"/>
  <path class="fil25" d="M8738 9883l-3 -1c-59,-37 -112,-86 -154,-143l2 -8 8 1c41,55 93,103 151,139l2 9 -6 3z"/>
  <path class="fil25" d="M8688 9924l-3 -1c-53,-31 -100,-73 -137,-120l1 -9 8 1c36,47 82,87 134,118l2 8 -5 3z"/>
  <path class="fil25" d="M8632 9959l-3 0c-44,-25 -84,-58 -116,-97l1 -8 9 1c30,37 69,69 112,93l3 8 -6 3z"/>
  <path class="fil25" d="M8381 9910l0 0zm104 62l-2 0c-3,-1 -5,-5 -4,-8 4,-12 6,-25 7,-38 0,-5 -1,-11 -3,-15 -1,-5 -4,-8 -8,-9 -4,-1 -8,1 -12,5 -4,3 -7,8 -10,13l-1 2c-3,6 -8,13 -14,17 -1,1 -5,3 -9,3l-5 -4 -1 -7c1,-8 4,-14 7,-20 2,-4 3,-7 4,-10 2,-4 6,-16 0,-24 -4,-4 -10,-6 -17,-5 -6,1 -11,5 -16,11 -5,6 -8,13 -11,19l0 2c-3,6 -6,13 -11,14l-8 -3 -1 0 0 -1c-1,-3 -1,-6 0,-15 2,-9 3,-21 2,-28 -2,-13 -8,-25 -17,-31l-2 -8 9 -2c12,8 20,22 22,39 1,5 1,11 0,17 2,-4 5,-7 7,-11 7,-8 15,-13 24,-15 11,-2 22,2 28,9 7,9 8,22 3,36 -2,4 -3,7 -5,11l-2 4 3 -4 1 -2c3,-5 6,-11 11,-16 7,-7 16,-9 24,-7 7,1 14,7 17,15 2,7 3,14 3,20 -1,14 -3,28 -7,42l-6 4z"/>
  <path class="fil25" d="M8762 9828l-4 -2 -101 -108c-14,-15 -29,-32 -46,-45 -19,-15 -38,-24 -56,-29 -9,-2 -25,-4 -35,5 -6,6 -9,15 -12,25 -1,3 -2,7 -3,11 -6,17 -17,32 -32,42l-9 -1 2 -9c13,-9 23,-22 28,-36 1,-4 2,-7 3,-10 3,-11 6,-23 15,-31 10,-9 27,-12 46,-8 20,5 40,16 60,32 18,14 33,30 48,46l101 107 -1 9 -4 2z"/>
  <path class="fil26" d="M11767 13911c50,108 93,197 107,275 13,78 -38,133 -160,133 -121,0 -599,7 -690,0 -91,-8 -130,-55 -83,-103 47,-47 239,-133 373,-187 135,-55 228,-118 228,-118l225 0z"/>
  <path class="fil27" d="M11875 14225c-8,56 -60,94 -160,94 -121,0 -599,7 -690,0 -86,-7 -126,-50 -91,-94l941 0z"/>
  <path class="fil26" d="M10993 14225c-8,56 -60,94 -160,94 -121,0 -599,7 -690,0 -85,-7 -126,-50 -91,-94l8 -9c47,-47 238,-133 373,-187 135,-55 227,-118 227,-118l226 0c49,108 93,197 106,275 3,13 3,27 1,39z"/>
  <path class="fil28" d="M10419 10173c-79,359 -392,1706 -329,1939 63,233 540,1814 540,1814 108,0 273,0 273,0 -95,-783 -250,-1734 -188,-1956 63,-222 307,-995 307,-995 0,0 160,665 251,1257 91,591 238,1708 238,1708 0,0 200,0 285,-28 0,-63 0,-1777 0,-2044 0,-268 133,-1603 133,-1762l-1510 67z"/>
  <path class="fil29" d="M11470 7115c-34,143 -42,502 -42,502 -227,95 -380,74 -425,29l39 -378 428 -153z"/>
  <path class="fil30" d="M11010 6466c-144,102 -180,220 -196,535 -10,205 -23,482 64,485 150,6 481,-143 604,-324 123,-180 143,-457 79,-581 -64,-124 -334,-268 -551,-115z"/>
  <path class="fil31" d="M8857 9603c63,63 103,197 103,197 288,0 954,-461 1079,-586 125,-125 458,-570 458,-570 0,151 -180,1148 -89,1607 186,57 1513,-56 1513,-56 170,-509 185,-2134 -114,-2494 -150,-93 -364,-89 -364,-89 0,0 -168,68 -257,69 -90,1 -148,-7 -199,-48 -171,8 -482,118 -721,414 -239,295 -369,750 -551,864 -182,114 -736,571 -858,692z"/>
  <path class="fil32" d="M12236 10930l-1475 -284c-26,-5 -43,-30 -38,-56l178 -924c5,-26 30,-43 56,-38l1474 284c26,5 43,30 38,55l-177 925c-5,26 -30,42 -56,38z"/>
  <path class="fil33" d="M11635 10195c0,65 -14,163 -50,199 -36,36 -180,118 -191,169 -11,51 -34,127 0,127 34,0 77,-119 119,-123 43,-5 -15,153 -77,198 -54,21 -84,-33 -105,20 -21,53 124,91 222,70 99,-21 148,-78 171,-154 23,-76 47,-265 57,-330 9,-64 30,-161 30,-161l-176 -15z"/>
  <path class="fil25" d="M11405 10856c-33,0 -64,-17 -78,-43 -3,-5 -1,-12 5,-15 5,-2 11,0 14,5 11,21 39,35 67,32 25,-3 50,-17 72,-40 20,-21 35,-48 50,-73 3,-5 9,-7 14,-4 5,3 7,9 4,14 -15,27 -31,54 -53,78 -25,26 -55,43 -85,46 -3,0 -6,0 -10,0z"/>
  <path class="fil25" d="M11498 10873c-5,0 -9,-4 -10,-9 -1,-6 3,-11 9,-12 23,-3 45,-14 62,-31 17,-17 28,-39 31,-62 1,-6 6,-10 12,-9 6,1 10,6 9,12 -4,28 -17,54 -37,74 -20,20 -46,33 -74,37l-2 0z"/>
  <path class="fil25" d="M11568 10855l-3 0c-6,0 -10,-5 -10,-11 0,-6 4,-10 11,-10 22,0 46,-8 64,-22 18,-14 31,-35 36,-58 2,-5 7,-9 13,-8 6,1 9,7 8,13 -6,27 -21,52 -44,70 -21,17 -48,26 -75,26z"/>
  <path class="fil34" d="M11647 7684c404,-54 356,505 402,926 45,420 91,595 0,877 -91,283 -224,780 -224,780 -78,0 -212,-41 -212,-41 66,-221 125,-885 125,-968 0,-84 -240,-797 -291,-979 -52,-182 -41,-563 200,-595z"/>
  <path class="fil35" d="M11225 6948c15,-48 55,-86 105,-93 48,-5 91,17 79,96 -23,143 -139,166 -140,201 -1,34 -29,147 10,189 39,42 150,80 157,81 7,0 54,-307 161,-435 93,-39 126,-116 88,-236 56,-83 -2,-231 -127,-235 -77,-214 -301,-245 -369,-162 -219,-176 -606,126 -367,345 112,102 252,-55 252,-55 53,94 157,50 157,50 -78,166 -55,273 -30,281 12,4 19,-11 24,-27z"/>
  <path class="fil36" d="M10993 14225c-8,56 -60,94 -160,94 -121,0 -599,7 -690,0 -85,-7 -126,-50 -91,-94l941 0z"/>
  <path class="fil20" d="M10469 9030l0 0c-6,-1 -11,-6 -10,-12 11,-213 36,-428 74,-638 1,-6 7,-9 13,-8 5,1 9,6 8,12 -38,209 -63,423 -74,636 -1,5 -5,10 -11,10z"/>
  <path class="fil20" d="M11702 9682l-1 0c-6,-2 -10,-7 -9,-13 48,-254 47,-447 -1,-608 -31,-100 -71,-200 -110,-296 -32,-80 -65,-162 -93,-245 -75,-225 -92,-412 -51,-575 1,-6 7,-9 13,-8 5,2 9,7 7,13 -39,159 -23,343 51,563 27,82 60,164 93,244 39,96 79,197 110,298 49,164 50,361 2,618 -1,5 -6,9 -11,9z"/>
  <path class="fil37" d="M9779 8865l-6 -2c-5,-4 -5,-11 -2,-15 121,-144 197,-298 277,-460 15,-31 31,-63 47,-95 131,-262 275,-418 451,-492 5,-2 11,0 13,6 3,5 0,11 -5,13 -171,72 -311,225 -440,483 -16,32 -32,63 -47,94 -81,164 -157,318 -279,464l-9 4z"/>
  <path class="fil38" d="M10835 7201c0,60 3,95 52,109 49,15 116,-54 116,-98 0,-45 -125,-7 -168,-11z"/>
  <path class="fil39" d="M5986 8279c-184,-53 -316,88 -342,526 -26,437 -55,801 -22,911 33,111 320,934 320,934l202 -70c0,0 -204,-834 -204,-985 0,-151 103,-684 136,-864 33,-180 39,-415 -90,-452z"/>
  <path class="fil40" d="M5645 13836c0,7 -7,240 -7,240 0,0 204,26 198,0 -5,-26 28,-258 28,-258l-219 18z"/>
  <path class="fil41" d="M7020 13828c5,16 65,215 65,215 0,0 205,16 205,5 0,-11 -26,-281 -26,-281l-244 61z"/>
  <path class="fil42" d="M5850 6901c43,-184 -96,-441 -333,-345 -238,95 -179,444 163,496 68,-17 170,-151 170,-151z"/>
  <path class="fil43" d="M6391 6999c127,260 322,606 460,744 22,248 -400,408 -579,367 -179,-41 119,-1111 119,-1111z"/>
  <path class="fil44" d="M5534 14333c7,55 56,91 150,91 113,0 561,7 646,0 80,-7 118,-48 85,-91l-7 -9c-44,-46 -224,-128 -350,-181 -126,-54 -213,-115 -213,-115l-211 0c-46,105 -87,192 -99,267 -3,13 -3,26 -1,38z"/>
  <path class="fil45" d="M5534 14333c7,55 56,91 150,91 113,0 561,7 646,0 80,-7 118,-48 85,-91l-881 0z"/>
  <path class="fil46" d="M6971 14333c8,55 57,91 150,91 114,0 561,7 646,0 80,-7 118,-48 86,-91l-8 -9c-44,-46 -223,-128 -349,-181 -126,-54 -213,-115 -213,-115l-212 0c-46,105 -87,192 -99,267 -2,13 -3,26 -1,38z"/>
  <path class="fil47" d="M6971 14333c8,55 57,91 150,91 114,0 561,7 646,0 80,-7 118,-48 86,-91l-882 0z"/>
  <path class="fil48" d="M5847 7633c79,127 66,518 66,518 0,0 348,33 389,5 -22,-90 -63,-358 -63,-358l-392 -165z"/>
  <path class="fil49" d="M6437 7139c43,164 126,705 0,761 -94,43 -422,-69 -579,-289 -157,-221 -287,-309 -259,-458 28,-149 212,-347 400,-325 187,22 375,72 438,311z"/>
  <path class="fil50" d="M5914 8080c77,41 390,46 390,46 119,238 322,329 406,546 127,325 -201,1092 -138,1373l-792 0c88,-274 -176,-1213 -110,-1515 66,-302 244,-450 244,-450z"/>
  <path class="fil51" d="M5822 9990c-183,144 -295,386 -292,888 1,131 17,713 29,915 61,976 59,2065 59,2065 111,33 304,0 304,0l403 -2517 666 2504c127,0 287,-59 287,-59 0,0 -176,-1557 -243,-1921 -66,-364 6,-1257 -463,-1820 -143,0 -750,-55 -750,-55z"/>
  <path class="fil52" d="M6437 7139c-34,173 -391,313 -391,313 -170,-122 -173,192 -33,251 57,213 68,432 -281,638 -725,-194 -429,-646 -276,-1067 112,-309 293,-469 581,-469 143,0 381,59 400,334z"/>
  <path class="fil38" d="M6460 7686c12,0 22,10 21,22 -2,33 -9,54 -44,63 -43,11 -125,-53 -100,-78 13,-12 80,-7 123,-7z"/>
  <path class="fil53" d="M6174 12242l-2 0c-6,-1 -10,-7 -9,-12 10,-55 20,-108 29,-161 85,-468 153,-839 164,-1272 0,-6 5,-11 11,-10 6,0 11,5 10,10 -11,435 -79,806 -164,1276 -9,52 -19,106 -29,160 -1,6 -5,9 -10,9z"/>
  <path class="fil37" d="M6631 9484l-3 0c-6,-2 -9,-8 -7,-13 34,-116 69,-236 88,-358 21,-135 18,-257 -8,-363 -30,-117 -89,-225 -174,-312 -4,-4 -3,-11 1,-15 4,-4 11,-4 15,0 86,90 148,201 178,322 27,109 30,234 9,372 -19,122 -55,243 -89,360 -2,4 -6,7 -10,7z"/>
  <path class="fil54" d="M5590 13762c-9,34 13,109 13,109 0,0 291,18 342,0l18 -109c-120,0 -373,0 -373,0z"/>
  <path class="fil55" d="M6940 13751c-3,35 33,105 33,105 0,0 290,-39 336,-65l-3 -111c-117,22 -366,71 -366,71z"/>
  <path class="fil56" d="M6214 8469c299,184 870,667 964,702 117,45 1007,352 1007,352 0,0 -43,147 -74,179 -140,0 -927,-154 -1081,-215 -115,-46 -835,-412 -1118,-608 -200,-138 -182,-401 -61,-479 118,-77 199,-33 363,69z"/>
 </g>
</svg>
