<?xml version="1.0" encoding="UTF-8"?>
<!DOCTYPE svg PUBLIC "-//W3C//DTD SVG 1.1//EN" "http://www.w3.org/Graphics/SVG/1.1/DTD/svg11.dtd">
<!-- Creator: CorelDRAW X7 -->
<svg xmlns="http://www.w3.org/2000/svg" xml:space="preserve" width="1763.89mm" height="1763.89mm" version="1.1" style="shape-rendering:geometricPrecision; text-rendering:geometricPrecision; image-rendering:optimizeQuality; fill-rule:evenodd; clip-rule:evenodd"
viewBox="0 0 176389 176389"
 xmlns:xlink="http://www.w3.org/1999/xlink">
 <defs>
  <style type="text/css">
   <![CDATA[
    .fil20 {fill:#130C3A;fill-rule:nonzero}
    .fil6 {fill:#23194C;fill-rule:nonzero}
    .fil9 {fill:#B8B8F4;fill-rule:nonzero}
    .fil7 {fill:#C8C7FF;fill-rule:nonzero}
    .fil8 {fill:#D9D9FF;fill-rule:nonzero}
    .fil23 {fill:#E9E9FF;fill-rule:nonzero}
    .fil4 {fill:#F9BA70;fill-rule:nonzero}
    .fil0 {fill:#FDEAD3;fill-rule:nonzero}
    .fil21 {fill:#FFBEAB;fill-rule:nonzero}
    .fil22 {fill:#FFD4C8;fill-rule:nonzero}
    .fil11 {fill:white;fill-rule:nonzero}
    .fil15 {fill:url(#id0)}
    .fil14 {fill:url(#id1)}
    .fil16 {fill:url(#id2)}
    .fil25 {fill:url(#id3)}
    .fil24 {fill:url(#id4)}
    .fil12 {fill:url(#id5)}
    .fil19 {fill:url(#id6)}
    .fil3 {fill:url(#id7)}
    .fil10 {fill:url(#id8)}
    .fil18 {fill:url(#id9)}
    .fil17 {fill:url(#id10)}
    .fil2 {fill:url(#id11)}
    .fil1 {fill:url(#id12)}
    .fil5 {fill:url(#id13)}
    .fil13 {fill:url(#id14)}
   ]]>
  </style>
  <linearGradient id="id0" gradientUnits="userSpaceOnUse" x1="85494" y1="133073" x2="54152.2" y2="133073">
   <stop offset="0" style="stop-opacity:1; stop-color:#A39CEF"/>
   <stop offset="0" style="stop-opacity:1; stop-color:#A39CEF"/>
   <stop offset="1" style="stop-opacity:1; stop-color:#5431DC"/>
   <stop offset="1" style="stop-opacity:1; stop-color:#5431DC"/>
  </linearGradient>
  <linearGradient id="id1" gradientUnits="userSpaceOnUse" xlink:href="#id0" x1="131118" y1="133074" x2="54149.4" y2="133074">
  </linearGradient>
  <linearGradient id="id2" gradientUnits="userSpaceOnUse" x1="118916" y1="111596" x2="110919" y2="111596">
   <stop offset="0" style="stop-opacity:1; stop-color:#F9BA70"/>
   <stop offset="0" style="stop-opacity:1; stop-color:#F9BA70"/>
   <stop offset="1" style="stop-opacity:1; stop-color:#FE7055"/>
   <stop offset="1" style="stop-opacity:1; stop-color:#FE7055"/>
  </linearGradient>
  <linearGradient id="id3" gradientUnits="userSpaceOnUse" xlink:href="#id2" x1="149368" y1="60342.1" x2="157079" y2="60342.1">
  </linearGradient>
  <linearGradient id="id4" gradientUnits="userSpaceOnUse" xlink:href="#id2" x1="149368" y1="49954.4" x2="157079" y2="49954.4">
  </linearGradient>
  <linearGradient id="id5" gradientUnits="userSpaceOnUse" xlink:href="#id2" x1="63628.1" y1="51384.7" x2="71856" y2="51384.7">
  </linearGradient>
  <linearGradient id="id6" gradientUnits="userSpaceOnUse" x1="159990" y1="35332.2" x2="112143" y2="35332.2">
   <stop offset="0" style="stop-opacity:1; stop-color:#C8C7FF"/>
   <stop offset="0" style="stop-opacity:1; stop-color:#C8C7FF"/>
   <stop offset="1" style="stop-opacity:1; stop-color:#A39CEF"/>
  </linearGradient>
  <linearGradient id="id7" gradientUnits="userSpaceOnUse" xlink:href="#id6" x1="26946.2" y1="145019" x2="139028" y2="145019">
  </linearGradient>
  <linearGradient id="id8" gradientUnits="userSpaceOnUse" xlink:href="#id2" x1="62949" y1="30096.6" x2="76597" y2="30096.6">
  </linearGradient>
  <linearGradient id="id9" gradientUnits="userSpaceOnUse" xlink:href="#id2" x1="136386" y1="28033.4" x2="136386" y2="76708.2">
  </linearGradient>
  <linearGradient id="id10" gradientUnits="userSpaceOnUse" x1="161109" y1="27993.8" x2="162120" y2="76747.9">
   <stop offset="0" style="stop-opacity:1; stop-color:#C8C7FF"/>
   <stop offset="0" style="stop-opacity:1; stop-color:#C8C7FF"/>
   <stop offset="1" style="stop-opacity:1; stop-color:#5431DC"/>
   <stop offset="1" style="stop-opacity:1; stop-color:#5431DC"/>
  </linearGradient>
  <linearGradient id="id11" gradientUnits="userSpaceOnUse" xlink:href="#id2" x1="29123.2" y1="100342" x2="82000.7" y2="100342">
  </linearGradient>
  <linearGradient id="id12" gradientUnits="userSpaceOnUse" xlink:href="#id0" x1="25400.1" y1="100342" x2="78277.7" y2="100342">
  </linearGradient>
  <linearGradient id="id13" gradientUnits="userSpaceOnUse" xlink:href="#id2" x1="82987.1" y1="151408" x2="82987.1" y2="145088">
  </linearGradient>
  <linearGradient id="id14" gradientUnits="userSpaceOnUse" xlink:href="#id0" x1="116521" y1="106621" x2="102385" y2="118346">
  </linearGradient>
 </defs>
 <g id="Camada_x0020_1">
  <metadata id="CorelCorpID_0Corel-Layer"/>
  <path class="fil0" d="M153627 88194c0,38912 -31521,70640 -70640,70640 -22305,0 -42813,-10414 -56041,-27629 -9155,-11915 -14599,-26829 -14599,-43011 0,-39007 31628,-70639 70640,-70639 13992,0 27036,4073 38010,11090 9450,6042 17367,14279 23032,23984 6104,10450 9598,22596 9598,35565z"/>
  <path class="fil1" d="M68090 64782l10727 71121 -44303 0 -9578 -63503c-605,-4010 2500,-7618 6555,-7618l36599 0z"/>
  <path class="fil2" d="M71813 64782l10727 71121 -44303 0 -9578 -63503c-605,-4010 2500,-7618 6555,-7618l36599 0z"/>
  <path class="fil3" d="M139028 131205c-12913,16803 -33210,27629 -56041,27629 -22831,0 -43128,-10826 -56041,-27629l112082 0z"/>
  <path class="fil4" d="M139028 131205c-6580,8564 -15088,15542 -24484,20203l-63114 0c-8988,-4458 -17643,-11300 -24484,-20203l112082 0z"/>
  <path class="fil5" d="M124867 145088c-3324,2454 -6869,4607 -10323,6320l-63114 0c-3452,-1713 -6997,-3866 -10323,-6320l83760 0z"/>
  <path class="fil6" d="M119682 148568c-1667,1017 -3381,1968 -5138,2840l-63114 0c-1757,-872 -3471,-1823 -5138,-2840l73390 0z"/>
  <path class="fil7" d="M90167 40715l0 6362c0,1586 -1285,2870 -2870,2870l-813 0 0 -12102 813 0c1585,0 2870,1285 2870,2870z"/>
  <polygon class="fil6" points="104175,96976 96355,98342 94223,86159 102078,84987 "/>
  <path class="fil7" d="M104674 84598l-11469 1715 -2298 -15387 5880 -878c3088,-461 5962,1664 6423,4752l1464 9798z"/>
  <polygon class="fil6" points="85569,128604 89488,102895 57150,105688 56001,109136 56943,128604 "/>
  <path class="fil8" d="M97511 79176l-4184 30519 -38018 -936c-1993,-51 -3494,-1831 -3209,-3803l3065 -21050 -44 -13626 11610 -1298 389 -43 621 -69 1050 22 11196 216 670 12 546 82 9949 1501c4077,615 6908,4385 6359,8473z"/>
  <polygon class="fil6" points="56644,86634 51456,117521 42284,113138 47553,85048 "/>
  <path class="fil8" d="M94425 131194l-22751 2295 -31824 -10011c-1626,-511 -2425,-2342 -1698,-3881l125 -263 445 -944 997 -2115c1928,-4081 6745,-5896 10886,-4103l43820 19022z"/>
  <polygon class="fil7" points="81067,131513 76823,131279 38277,119334 38722,118390 "/>
  <path class="fil6" d="M46566 120619c0,1326 -1077,2402 -2406,2402 -1326,0 -2402,-1076 -2402,-2402 0,-1329 1076,-2406 2402,-2406 1329,0 2406,1077 2406,2406z"/>
  <path class="fil6" d="M80784 79855c0,1813 -1473,3287 -3286,3287 -1813,0 -3287,-1474 -3287,-3287 0,-1813 1474,-3286 3287,-3286 1813,0 3286,1473 3286,3286z"/>
  <polygon class="fil7" points="80657,69120 79987,69108 79980,69108 68791,68892 68788,68889 67741,68870 67775,68434 68540,58463 80319,59742 80632,68428 "/>
  <polygon class="fil9" points="68788,68889 67741,68870 67775,68434 "/>
  <path class="fil7" d="M81203 69202l-2084 2163c-859,874 -2016,1335 -3191,1335 -627,0 -1257,-132 -1850,-404l-7347 -3314 389 -43 621 -69 1050 22 5676 2548c1345,618 2943,323 3978,-730l1542 -1602 670 12 546 82z"/>
  <path class="fil6" d="M89854 36889l-17973 0c-2241,6494 -2617,14064 -1906,22257l3 0c79,947 176,1903 286,2868l-8451 -2717c-3902,-1257 -6366,-5110 -5864,-9181l1827 -14882c837,-6811 6620,-11930 13481,-11930l5012 0c3752,0 7150,1520 9607,3978 2458,2457 3978,5855 3978,9607z"/>
  <path class="fil8" d="M88036 36889l0 16098c0,4467 -3915,7924 -8350,7373l-9708 -1214 -3 0c-711,-8193 -335,-15763 1906,-22257l16155 0z"/>
  <path class="fil6" d="M77968 43973c0,1332 -765,2410 -1711,2410 -944,0 -1712,-1078 -1712,-2410 0,-1332 768,-2411 1712,-2411 946,0 1711,1079 1711,2411z"/>
  <path class="fil6" d="M86143 43973c0,1332 -765,2410 -1712,2410 -943,0 -1708,-1078 -1708,-2410 0,-1332 765,-2411 1708,-2411 947,0 1712,1079 1712,2411z"/>
  <path class="fil8" d="M84563 45173c0,279 -226,502 -502,502 -275,0 -498,-223 -498,-502 0,-275 223,-498 498,-498 276,0 502,223 502,498z"/>
  <path class="fil8" d="M85481 43255c0,552 -316,1000 -708,1000 -392,0 -712,-448 -712,-1000 0,-551 320,-1000 712,-1000 392,0 708,449 708,1000z"/>
  <path class="fil8" d="M76388 45173c0,279 -225,502 -501,502 -276,0 -498,-223 -498,-502 0,-275 222,-498 498,-498 276,0 501,223 501,498z"/>
  <path class="fil8" d="M77307 43255c0,552 -320,1000 -712,1000 -391,0 -708,-448 -708,-1000 0,-551 317,-1000 708,-1000 392,0 712,449 712,1000z"/>
  <path class="fil6" d="M82218 54056c0,576 -235,1103 -614,1479 -379,380 -900,615 -1479,615l-179 0c-1156,0 -2094,-937 -2094,-2094l4366 0z"/>
  <path class="fil7" d="M81782 51735l-2508 0c-121,0 -219,-99 -219,-220 0,-122 98,-219 219,-219l2251 0 -1214 -7693c-19,-120 63,-232 183,-251 120,-20 231,62 251,181l1253 7948c10,62 -8,127 -49,177 -42,48 -103,77 -167,77z"/>
  <path class="fil7" d="M70990 41277l0 5535c0,2426 -1962,4389 -4388,4389l-912 0c-2426,0 -4388,-1963 -4388,-4389l0 -5535c0,-2423 1962,-4388 4388,-4388l912 0c2426,0 4388,1965 4388,4388z"/>
  <path class="fil10" d="M66146 36889l0 -5727c0,-4340 3517,-7858 7857,-7858l2594 0 -5420 0c-4544,0 -8228,3684 -8228,8228l0 5357 3197 0z"/>
  <path class="fil11" d="M45295 120619c0,624 -508,1132 -1135,1132 -624,0 -1131,-508 -1131,-1132 0,-627 507,-1135 1131,-1135 627,0 1135,508 1135,1135z"/>
  <path class="fil7" d="M74820 88505l-13725 -4763 308 -888 13725 4762c2691,934 5677,329 7793,-1579l13318 -12011 629 698 -13318 12012c-2377,2143 -5724,2812 -8730,1769z"/>
  <path class="fil7" d="M62233 78329l-1777 8971 -12440 -2172 -467 -81 -3668 -640 1997 -9369c740,-3463 4100,-5711 7582,-5065l564 103 1458 270 1533 285c3582,665 5930,4125 5218,7698z"/>
  <path class="fil9" d="M55482 70346l-1997 1107c-2059,1137 -3488,3115 -3921,5428l-1548 8247 0 6 -467 -87 -458 -85 1548 -8253c486,-2589 2085,-4805 4388,-6081l997 -552 1458 270z"/>
  <path class="fil6" d="M50789 79981c0,1263 -1021,2288 -2285,2288 -1263,0 -2288,-1025 -2288,-2288 0,-1263 1025,-2288 2288,-2288 1264,0 2285,1025 2285,2288z"/>
  <path class="fil8" d="M49627 79981c0,621 -502,1125 -1123,1125 -620,0 -1125,-504 -1125,-1125 0,-621 505,-1125 1125,-1125 621,0 1123,504 1123,1125z"/>
  <path class="fil8" d="M79147 79855c0,912 -738,1650 -1649,1650 -911,0 -1650,-738 -1650,-1650 0,-910 739,-1649 1650,-1649 911,0 1649,739 1649,1649z"/>
  <polygon class="fil9" points="80657,69120 79987,69108 79980,69108 80632,68428 "/>
  <path class="fil8" d="M68747 41277l0 5535c0,2426 -1963,4389 -4389,4389l-912 0c-2426,0 -4388,-1963 -4388,-4389l0 -5535c0,-2423 1962,-4388 4388,-4388l912 0c2426,0 4389,1965 4389,4388z"/>
  <path class="fil12" d="M71856 55035l-4653 0c-1971,0 -3575,-1604 -3575,-3576l0 -3725 784 0 0 3725c0,1539 1252,2792 2791,2792l4653 0 0 784z"/>
  <path class="fil6" d="M73875 54642c0,812 -659,1470 -1470,1470 -812,0 -1470,-658 -1470,-1470 0,-812 658,-1469 1470,-1469 811,0 1470,657 1470,1469z"/>
  <path class="fil6" d="M65377 46925l0 1617c0,502 -407,909 -909,909l-896 0c-502,0 -909,-407 -909,-909l0 -1617c0,-501 407,-909 909,-909l896 0c502,0 909,408 909,909z"/>
  <path class="fil6" d="M74037 41140c-70,0 -140,-26 -195,-78 -112,-107 -117,-286 -9,-399 763,-803 1551,-1211 2339,-1211 1,0 0,0 0,0 789,0 1576,408 2340,1211 107,113 103,292 -10,399 -113,107 -291,104 -399,-9 -1306,-1375 -2555,-1375 -3862,0 -55,57 -129,87 -204,87z"/>
  <path class="fil6" d="M86483 41140c-74,0 -149,-30 -204,-87 -1306,-1375 -2556,-1375 -3862,0 -107,113 -286,116 -399,9 -113,-107 -117,-286 -10,-399 1528,-1606 3152,-1606 4680,0 107,113 103,292 -10,399 -55,52 -125,78 -195,78z"/>
  <path class="fil13" d="M82363 131194l45624 0 8556 -37422 -43569 0c-1241,0 -2316,858 -2590,2068l-8021 35354z"/>
  <path class="fil7" d="M85494 131194l45624 0 7813 -34175c382,-1663 -882,-3247 -2587,-3247l-42360 0 -8490 37422z"/>
  <path class="fil14" d="M131118 131194l-76969 0 0 3c0,2075 1682,3757 3757,3757l69455 0c2075,0 3757,-1682 3757,-3757l0 -3z"/>
  <path class="fil15" d="M54152 131194c0,2072 1675,3757 3757,3757l23829 0c2078,0 3756,-1678 3756,-3757l-31342 0z"/>
  <path class="fil16" d="M110638 111596c-416,2372 1164,4293 3529,4293 2361,0 4615,-1921 5031,-4293 416,-2373 -1165,-4293 -3526,-4293 -2365,0 -4619,1920 -5034,4293z"/>
  <path class="fil17" d="M159187 76619l900 76c2172,182 3955,-1572 3955,-3922l0 -40804c0,-2350 -1783,-4104 -3955,-3922l-900 75c1646,373 2861,1907 2861,3847l0 40804c0,1939 -1215,3473 -2861,3846z"/>
  <path class="fil18" d="M110723 35530l0 33681c0,1939 1229,3614 2763,3743l44605 3741c2172,183 3957,-1572 3957,-3921l0 -40807c0,-2348 -1785,-4103 -3957,-3920l-44605 3741c-1534,129 -2763,1804 -2763,3742z"/>
  <path class="fil11" d="M158091 74527c1044,80 1899,-770 1899,-1896l0 -40520c0,-1126 -855,-1976 -1899,-1897l-44605 3409c-742,57 -1343,868 -1343,1810l0 33877c0,941 601,1752 1343,1809l44605 3408z"/>
  <path class="fil19" d="M112143 40455l0 -5022c0,-942 601,-1753 1343,-1810l44605 -3409c1044,-79 1899,771 1899,1897l0 6007 -47847 2337z"/>
  <path class="fil11" d="M154846 34417c0,626 469,1106 1049,1072 581,-33 1056,-572 1056,-1203 0,-634 -475,-1114 -1056,-1075 -580,39 -1049,577 -1049,1206z"/>
  <path class="fil11" d="M151610 34620c0,619 460,1094 1025,1060 569,-33 1033,-565 1033,-1189 0,-626 -464,-1101 -1033,-1063 -565,38 -1025,570 -1025,1192z"/>
  <path class="fil11" d="M148447 34818c0,612 448,1082 1003,1050 555,-34 1009,-559 1009,-1176 0,-619 -454,-1088 -1009,-1052 -555,37 -1003,563 -1003,1178z"/>
  <polygon class="fil11" points="114309,35980 114309,37929 143200,36235 143200,34056 "/>
  <path class="fil4" d="M137741 52133c0,5862 -4752,10615 -10615,10615 -5861,0 -10614,-4753 -10614,-10615 0,-5862 4753,-10615 10614,-10615 5863,0 10615,4753 10615,10615z"/>
  <path class="fil6" d="M122788 51976c577,771 1741,353 2544,0 0,-1 3,-1 3,-2 236,-837 -1164,-2431 -1164,-2431 -366,-942 119,-2529 119,-2529 0,0 206,-567 1008,-1217 803,-651 1618,-453 1618,-453 -266,917 1234,1473 1234,1473 375,7071 246,4633 274,5159l511 0c890,-207 2609,-685 2962,-1530 394,-944 -467,-3604 -876,-4737 -1313,-3642 -4125,-2404 -4125,-2404 -3632,-283 -3510,3875 -3858,5522 -309,1473 -898,2282 -250,3149z"/>
  <path class="fil20" d="M123926 48723l2207 0 0 6 3658 0c-75,267 -167,547 -310,1018 -396,1299 -1437,2249 -2857,2603 -1111,278 -1746,-152 -1887,-678 -74,-278 -157,-409 -195,-442 -585,-529 -688,-1254 -705,-1523 -300,-469 32,-862 89,-984z"/>
  <path class="fil20" d="M128206 47879l218 4097 511 0c118,-26 253,-59 397,-97 -83,-401 66,-844 382,-1105 153,-125 356,-236 386,-432 40,-265 -254,-454 -393,-601 -333,-362 -260,-738 -264,-917 -4,-483 -550,-1066 -1237,-945z"/>
  <path class="fil21" d="M129615 48130c50,-23 93,-52 145,-73 239,-99 517,-74 579,158 49,179 -58,684 -612,1182 -114,102 -454,428 -589,333 -88,-63 59,-211 230,-1052 15,-76 38,-154 43,-230 1,-27 76,-258 204,-318z"/>
  <path class="fil22" d="M129548 48518c60,-91 78,-204 180,-270 104,-68 259,-56 320,-10 63,47 57,140 47,210 -41,336 -42,372 -59,421 -11,33 -46,101 -78,109 -34,-45 -28,-98 -10,-146 38,-99 77,-123 54,-254 -26,-150 -126,-328 -263,-228 -85,61 -80,113 -102,161 -11,23 -49,78 -88,82 -59,5 -11,-60 -1,-75z"/>
  <path class="fil22" d="M129768 48623c58,112 96,308 -2,373 -93,61 -263,8 -347,78 -42,35 -63,131 -119,132 -33,1 -61,-44 -18,-117 62,-102 169,-217 141,-342 -12,-54 -4,-64 68,-99 64,-31 199,-173 277,-25z"/>
  <path class="fil23" d="M134890 59370c-828,909 -2156,1874 -2985,2244 0,0 -3,-3 -11,-6l0 12c-1237,658 -2981,1129 -4766,1129 -2125,0 -4109,-625 -5771,-1704 -97,-61 -191,-125 -286,-191 -27,-20 -55,-42 -85,-61 -3,-3 -6,-3 -9,-6 -746,-530 -1420,-1154 -2005,-1858 180,-1388 358,-2530 516,-2988 701,-2025 2627,-1987 3673,-2228 180,-44 418,-122 690,-222 826,-304 2029,-841 2583,-1099 2,0 2,-2 6,-2l2 0c4,0 6,0 6,0 197,-91 313,-147 313,-147 287,114 1134,469 2151,851l0 3c365,142 737,284 1087,407 494,182 934,334 1235,418 363,102 915,208 1458,384 675,217 1332,542 1596,1091 210,435 418,2053 602,3973z"/>
  <path class="fil6" d="M129999 53504l-214 276c-30,42 -327,413 -790,798 -753,625 -1562,957 -2341,957 -51,0 -98,0 -148,-2 -1509,-78 -2356,-1267 -2655,-2042 826,-304 2029,-841 2583,-1099 2,0 2,-2 6,-2l2 0c4,0 6,0 6,0 197,-91 313,-147 313,-147 287,114 1134,469 2151,851l0 3c365,142 737,284 1087,407z"/>
  <path class="fil23" d="M121357 61045c-97,-61 -191,-125 -286,-191 -27,-20 -55,-42 -85,-61 0,-3 0,-3 0,-6 180,-1301 305,-2288 305,-2288 0,0 28,1303 66,2546z"/>
  <path class="fil22" d="M124860 53020c0,0 445,1341 1704,1404 668,35 1289,-340 1721,-701 385,-318 626,-626 626,-626 -220,-780 -335,-1549 -318,-2305 -37,44 -91,111 -131,151 -21,64 -546,569 -1185,857 -2,0 -2,0 -2,0 -630,313 -1765,559 -2155,-27 36,515 -249,1200 -260,1247z"/>
  <path class="fil22" d="M124138 49608c0,0 -12,834 610,1394 120,110 219,342 285,591 13,51 41,114 87,179 422,590 1506,351 2155,28 0,0 0,0 2,0 614,-277 1164,-790 1185,-857 244,-244 556,-727 726,-1286 426,-1396 514,-1503 240,-1894 -253,-358 -729,-825 -874,-1523 -69,-329 -425,-698 -1115,-747 -689,-47 -518,-258 -652,-394 -71,-74 -166,-118 -276,-134 -514,-79 -1360,421 -1834,1136 -475,718 -766,2569 -766,2569 0,0 -107,476 227,938z"/>
  <path class="fil21" d="M124381 47879c261,-235 852,-219 1108,-30 6,4 31,19 31,26 -1,12 -96,67 -107,72 -58,31 -699,146 -1032,-68z"/>
  <path class="fil21" d="M127696 47940c-280,-251 -880,-199 -1108,-30 -41,30 -41,23 1,53 260,187 741,211 1107,-23z"/>
  <path class="fil6" d="M128144 47477c-409,-349 -520,-349 -829,-362 -150,-4 -303,-28 -446,14 -144,40 -285,95 -415,202 -7,8 -8,19 -2,26 48,12 131,73 457,77 209,4 573,-158 811,-80 136,38 271,95 407,149 8,3 18,-1 20,-8 4,-6 1,-13 -3,-18z"/>
  <path class="fil6" d="M127705 47947c-208,-365 -814,-459 -1157,0 124,-40 298,-149 582,-157 192,-6 380,57 575,157z"/>
  <path class="fil6" d="M123955 47441c137,-53 271,-112 407,-149 328,-107 711,214 1260,8 10,-3 15,-13 11,-23 -1,-2 -2,-4 -5,-7 -130,-108 -270,-162 -413,-202 -145,-42 -297,-19 -448,-15 -309,13 -418,14 -828,363 -6,4 -7,14 -1,21 3,5 10,6 17,4z"/>
  <path class="fil6" d="M124378 47886c593,-303 849,-99 1156,0 -337,-454 -945,-372 -1156,0z"/>
  <path class="fil6" d="M124956 48016c-238,0 -236,-357 0,-357 99,0 238,357 0,357z"/>
  <path class="fil6" d="M127306 47876c0,236 -359,236 -359,0 0,-237 359,-237 359,0z"/>
  <path class="fil21" d="M126625 49181c-6,202 108,383 236,530 417,442 651,277 451,858 -63,178 -151,352 -224,533 -1,3 0,6 2,7 3,2 5,0 6,-1 250,-296 571,-864 272,-1094 -89,-70 -169,-100 -248,-160 -495,-327 -507,-720 -484,-673 0,-3 -3,-5 -5,-5 -4,0 -5,2 -6,5z"/>
  <path class="fil21" d="M125130 48966c-101,21 -180,113 -202,216 -69,305 -36,252 -262,477 -86,90 -26,222 53,315 3,3 6,4 9,2 1,-2 1,-4 1,-5 -10,-96 -37,-213 13,-236 369,-267 108,-652 391,-759 2,-1 5,-4 3,-7 0,-2 -3,-3 -6,-3z"/>
  <path class="fil21" d="M126210 48950c89,72 173,168 187,270 8,109 -101,213 -145,276l4 6c263,-68 305,-365 -41,-558l-5 6z"/>
  <path class="fil21" d="M126107 49458c55,-18 68,-79 -18,-99 -248,-60 -478,102 -480,180 112,31 179,-106 358,-83 47,5 94,17 140,2z"/>
  <path class="fil21" d="M125040 49095c-59,262 92,528 338,492l3 -7c-148,-105 -341,-164 -332,-483l-9 -2z"/>
  <path class="fil21" d="M125546 47917c45,245 -4,523 -198,703 -78,76 -153,169 -180,281 -14,55 -21,120 14,172l11 -5c14,-178 231,-310 331,-514 104,-203 103,-439 33,-641l-11 4z"/>
  <path class="fil21" d="M126969 50009c-2107,-120 -2038,-140 -2031,-60 95,1208 1245,1061 2067,144 28,-31 6,-81 -36,-84z"/>
  <path class="fil22" d="M125185 50073c-44,-10 -81,34 -62,73 230,473 1043,474 1425,77 31,-31 66,-82 7,-108 -37,-18 -591,135 -1370,-42z"/>
  <path class="fil21" d="M128356 47369c-9,513 277,986 359,1493 73,455 -20,918 -112,1367 -57,278 -118,564 -291,789 -132,172 -427,512 -617,616 -395,214 -826,366 -1267,450 245,-20 554,-48 739,-63 225,-21 562,-261 788,-282 109,-9 225,-18 320,35 185,104 192,375 101,569 -91,191 -247,347 -320,547 -107,290 -5,637 229,833 385,-318 626,-626 626,-626 -220,-780 -335,-1549 -318,-2305 253,-316 460,-693 595,-1135 426,-1396 514,-1503 240,-1894 -253,-358 -729,-825 -874,-1523 -69,-329 -425,-698 -1115,-747 -689,-47 -518,-258 -652,-394 -71,-74 -166,-118 -276,-134 -74,136 -75,318 -5,460 231,458 876,459 1276,586 229,74 580,889 574,1358z"/>
  <path class="fil21" d="M125112 52056c371,208 852,77 852,77 -262,-34 -698,-140 -844,-360 6,89 2,184 -8,283z"/>
  <path class="fil21" d="M126986 51264c5,501 -325,647 -535,806l2 11c414,11 611,-432 544,-818l-11 1z"/>
  <path class="fil23" d="M134890 59370c-169,185 -350,363 -536,535 25,-416 48,-724 67,-871 111,-879 56,-1823 -417,-2572 -277,-437 -677,-785 -964,-1212 -161,-233 -337,-604 -348,-944 675,217 1332,542 1596,1091 210,435 418,2053 602,3973z"/>
  <path class="fil23" d="M121652 66544c-61,1292 -1157,2291 -2453,2230 -1292,-62 -2291,-1161 -2229,-2453 61,-1296 1160,-2295 2453,-2233 1295,62 2290,1160 2229,2456z"/>
  <path class="fil23" d="M128769 66883c-61,1292 -1157,2291 -2452,2230 -1292,-62 -2292,-1161 -2230,-2453 62,-1296 1161,-2295 2453,-2233 1296,61 2291,1160 2229,2456z"/>
  <path class="fil23" d="M135887 67222c-61,1292 -1157,2291 -2453,2229 -1291,-61 -2290,-1160 -2229,-2452 61,-1296 1160,-2295 2453,-2233 1296,61 2290,1160 2229,2456z"/>
  <path class="fil23" d="M154563 43836l0 1845c0,293 -232,533 -526,543l-10460 337c-306,9 -560,-237 -560,-544l0 -1734c0,-291 230,-531 521,-543l10459 -447c309,-14 566,234 566,543z"/>
  <path class="fil23" d="M157079 48970l0 1872c0,297 -238,540 -536,544l-15245 204c-305,5 -552,-240 -552,-543l0 -1710c0,-296 235,-537 531,-545l15245 -365c306,-7 557,238 557,543z"/>
  <path class="fil23" d="M157079 54213l0 1871c0,301 -244,545 -546,544l-15246 -81c-300,-1 -541,-244 -541,-543l0 -1711c0,-299 241,-542 541,-544l15246 -80c302,-2 546,242 546,544z"/>
  <path class="fil23" d="M157079 59455l0 1871c0,306 -251,551 -557,544l-15245 -366c-296,-7 -531,-248 -531,-544l0 -1710c0,-303 247,-548 552,-544l15245 205c298,4 536,246 536,544z"/>
  <path class="fil23" d="M157079 64697l0 1871c0,309 -257,556 -566,543l-15247 -651c-291,-13 -520,-252 -520,-544l0 -1709c0,-307 255,-554 561,-544l15246 490c294,10 526,250 526,544z"/>
  <path class="fil7" d="M153997 43293l-4629 198 0 2883 4669 -150c293,-10 526,-250 526,-543l0 -1845c0,-309 -257,-557 -566,-543z"/>
  <path class="fil24" d="M156522 48427l-7154 172 0 2883 7175 -96c298,-4 536,-247 536,-544l0 -1872c0,-305 -251,-550 -557,-543z"/>
  <path class="fil7" d="M156533 53669l-7165 37 0 2884 7165 38c302,1 546,-243 546,-544l0 -1871c0,-302 -244,-546 -546,-544z"/>
  <path class="fil25" d="M156543 58911l-7175 -97 0 2884 7154 172c306,7 557,-238 557,-544l0 -1871c0,-298 -238,-540 -536,-544z"/>
  <path class="fil7" d="M156553 64153l-7185 -231 0 2884 7145 305c309,13 566,-234 566,-543l0 -1872c0,-293 -232,-533 -526,-543z"/>
  <path class="fil11" d="M125652 66771c0,185 -152,338 -338,338 -187,0 -340,-153 -340,-338 0,-187 153,-341 340,-341 186,0 338,154 338,341z"/>
  <path class="fil11" d="M126767 66771c0,185 -153,338 -337,338 -189,0 -341,-153 -341,-338 0,-187 152,-341 341,-341 184,0 337,154 337,341z"/>
  <path class="fil11" d="M127883 66771c0,185 -153,338 -337,338 -188,0 -341,-153 -341,-338 0,-187 153,-341 341,-341 184,0 337,154 337,341z"/>
  <path class="fil11" d="M117930 65573l199 -199c168,-168 412,-196 546,-62l240 240c134,134 106,378 -62,546l0 0c-261,262 451,974 712,712l0 0c168,-168 412,-195 546,-62l241 241c134,133 106,378 -62,546l-199 199c-631,630 -2792,-1530 -2161,-2161z"/>
  <path class="fil11" d="M132350 66191l199 -199c168,-168 413,-196 546,-62l240 240c134,134 106,378 -62,546l0 0c-261,262 451,974 712,712l0 0c168,-168 412,-195 546,-62l241 241c134,133 106,378 -62,546l-199 199c-631,630 -2792,-1530 -2161,-2161z"/>
 </g>
</svg>
