<?xml version="1.0" encoding="utf-8"?>
<!-- Generator: Adobe Illustrator 16.0.0, SVG Export Plug-In . SVG Version: 6.00 Build 0)  -->
<!DOCTYPE svg PUBLIC "-//W3C//DTD SVG 1.1//EN" "http://www.w3.org/Graphics/SVG/1.1/DTD/svg11.dtd">
<svg version="1.1" id="Layer_1" xmlns="http://www.w3.org/2000/svg" xmlns:xlink="http://www.w3.org/1999/xlink" x="0px" y="0px"
	 width="500px" height="500px" viewBox="0 0 500 500" enable-background="new 0 0 500 500" xml:space="preserve">
<g id="XMLID_329_">
	<path id="XMLID_110_" fill="#E0F3FC" d="M447.694,409.143c51.156-38.897,73.938-146.759-9.124-199.649
		c-54.99-35.009-89.191-15.038-151.056-38.197C211.992,143.03,200.735,57.63,108.871,99.651
		c-48.668,22.255-82.406,84.98-88.341,156.27c-5.817,69.813,18.926,117.717,69.49,150.496
		C208.76,411.469,327.736,410.554,447.694,409.143z"/>
	<path id="XMLID_109_" fill="#E0F3FC" d="M237.534,102.342c-7.726,31.023,20.966,61.734,51.196,74.467
		c30.229,12.743,64.894,11.224,97.278,5.149c13.974-2.618,28.338-6.302,39.193-15.21c10.855-8.908,17.149-24.377,11.199-36.873
		c-5.25-11.02-18.031-16.665-30.217-19.562c-12.187-2.897-25.129-4.083-35.983-10.179c-10.295-5.785-17.598-15.361-26.55-22.945
		c-16.542-13.993-39.778-20.93-61.283-16.502C260.851,65.114,244.102,75.972,237.534,102.342z"/>
</g>
<g id="XMLID_160_">
	<g id="XMLID_27_">
		<path id="XMLID_155_" fill="#A3C7E9" d="M468.984,245.035v-23.47h-8.899c-1.068-4.104-2.698-7.973-4.785-11.536l6.293-6.303
			l-16.597-16.597l-6.304,6.292c-3.563-2.087-7.433-3.716-11.536-4.786v-8.899h-23.47v8.899c-4.104,1.069-7.973,2.698-11.536,4.786
			l-6.304-6.292l-16.597,16.597l6.293,6.303c-2.087,3.563-3.706,7.433-4.785,11.536h-8.899v23.47h8.899
			c1.079,4.104,2.698,7.973,4.785,11.536l-6.293,6.303l16.597,16.597l6.304-6.293c3.563,2.089,7.433,3.707,11.536,4.787v8.898h23.47
			v-8.898c4.104-1.08,7.973-2.698,11.536-4.787l6.304,6.293l16.597-16.597l-6.293-6.303c2.087-3.563,3.717-7.433,4.785-11.536
			H468.984z M415.428,253.634c-11.232,0-20.341-9.106-20.341-20.34c0-11.221,9.108-20.328,20.341-20.328
			c11.22,0,20.328,9.107,20.328,20.328C435.756,244.527,426.647,253.634,415.428,253.634z"/>
		<path id="XMLID_66_" fill="none" stroke="#A3C7E9" stroke-miterlimit="10" d="M398.062,303.841l-4.466-11.641l-4.413,1.694
			c-1.312-1.832-2.855-3.441-4.568-4.811l1.922-4.324l-11.389-5.072l-1.93,4.319c-2.164-0.356-4.393-0.429-6.631-0.179l-1.693-4.413
			l-11.64,4.466l1.693,4.413c-1.832,1.311-3.44,2.854-4.812,4.568l-4.322-1.922l-5.073,11.389l4.32,1.929
			c-0.357,2.164-0.424,4.392-0.179,6.632l-4.413,1.692l4.466,11.64l4.412-1.693c1.316,1.831,2.855,3.441,4.569,4.811l-1.922,4.323
			l11.388,5.073l1.929-4.319c2.165,0.356,4.392,0.424,6.632,0.179l1.693,4.413l11.639-4.466l-1.692-4.413
			c1.829-1.315,3.44-2.854,4.811-4.568l4.322,1.922l5.073-11.389l-4.318-1.929c0.356-2.164,0.428-4.394,0.178-6.632L398.062,303.841
			z M373.137,318.294c-5.57,2.138-11.819-0.646-13.957-6.217c-2.135-5.564,0.649-11.814,6.22-13.951
			c5.565-2.135,11.815,0.649,13.949,6.213C381.485,309.91,378.702,316.16,373.137,318.294z"/>
		<path id="XMLID_69_" fill="none" stroke="#A3C7E9" stroke-miterlimit="10" d="M359.927,263.013l-3.018-7.864l-2.981,1.145
			c-0.887-1.238-1.929-2.324-3.087-3.25l1.298-2.921l-7.694-3.427l-1.303,2.918c-1.463-0.241-2.969-0.29-4.481-0.12l-1.145-2.982
			l-7.864,3.017l1.145,2.983c-1.238,0.886-2.325,1.929-3.251,3.086l-2.921-1.298l-3.428,7.695l2.919,1.302
			c-0.241,1.463-0.286,2.968-0.12,4.481l-2.982,1.145l3.017,7.864l2.982-1.145c0.889,1.236,1.929,2.325,3.087,3.251l-1.299,2.921
			l7.695,3.429l1.303-2.92c1.463,0.241,2.968,0.286,4.481,0.12l1.145,2.982l7.864-3.017l-1.145-2.982
			c1.236-0.889,2.324-1.929,3.25-3.087l2.922,1.299l3.428-7.695l-2.919-1.303c0.241-1.463,0.289-2.969,0.121-4.481L359.927,263.013z
			 M343.086,272.78c-3.764,1.443-7.986-0.438-9.431-4.201c-1.442-3.76,0.438-7.982,4.202-9.427c3.76-1.442,7.982,0.438,9.426,4.198
			C348.727,267.114,346.846,271.337,343.086,272.78z"/>
	</g>
	<g id="XMLID_29_">
		<path id="XMLID_30_" fill="#1196D4" stroke="#1196D4" stroke-miterlimit="10" d="M357.188,125.316
			c0,11.793-5.513,22.306-14.087,29.099c-6.314,5.011-14.299,7.984-22.997,7.984c-8.674,0-16.659-2.973-22.995-7.984
			c-8.586-6.793-14.088-17.306-14.088-29.099c0-20.479,16.604-37.083,37.083-37.083S357.188,104.836,357.188,125.316z"/>
		<g id="XMLID_31_">
			<circle id="XMLID_32_" fill="#FFFFFF" cx="320.104" cy="113.111" r="12.138"/>
			<path id="XMLID_33_" fill="#FFFFFF" d="M343.102,149.737c-6.314,5.012-14.299,7.985-22.997,7.985
				c-8.674,0-16.659-2.974-22.995-7.985c2.372-10.434,4.555-19.443,6.826-21.726c3.207-3.207,11.726-5.078,16.159-5.078
				c4.432,0,13.351,2.272,14.999,3.92C338.457,130.205,341.354,139.459,343.102,149.737z"/>
		</g>
	</g>
	<g id="XMLID_34_">
		<g id="XMLID_35_">
			<path id="XMLID_36_" fill="#1196D4" d="M266.811,216.732V198.42c0-4.998,4.05-9.048,9.049-9.048h57.694
				c4.998,0,9.049,4.05,9.049,9.048v18.312c0,4.998-4.051,9.049-9.049,9.049H275.87C270.871,225.792,266.811,221.73,266.811,216.732
				z"/>
			<polyline id="XMLID_37_" fill="#1196D4" points="291.177,215.774 263.256,242.973 308.509,220.104 			"/>
		</g>
		<g id="XMLID_38_">
			<path id="XMLID_39_" fill="#FFFFFF" d="M273.812,197.968v-0.097c0-0.743,0.603-1.346,1.347-1.346h28.523
				c0.744,0,1.347,0.603,1.347,1.346v0.097c0,0.743-0.603,1.346-1.347,1.346h-28.523
				C274.415,199.314,273.812,198.711,273.812,197.968z"/>
			<path id="XMLID_40_" fill="#FFFFFF" d="M306.312,197.968v-0.097c0-0.743,0.603-1.346,1.347-1.346h24.895
				c0.742,0,1.347,0.603,1.347,1.346v0.097c0,0.743-0.604,1.346-1.347,1.346h-24.895
				C306.914,199.314,306.312,198.711,306.312,197.968z"/>
			<path id="XMLID_41_" fill="#FFFFFF" d="M295.442,204.097V204c0-0.743,0.604-1.347,1.347-1.347h35.764
				c0.742,0,1.347,0.604,1.347,1.347v0.097c0,0.744-0.604,1.347-1.347,1.347h-35.764
				C296.046,205.443,295.442,204.84,295.442,204.097z"/>
			<path id="XMLID_42_" fill="#FFFFFF" d="M273.812,204.097V204c0-0.743,0.603-1.347,1.347-1.347h15.975
				c0.743,0,1.347,0.604,1.347,1.347v0.097c0,0.744-0.604,1.347-1.347,1.347h-15.975
				C274.415,205.443,273.812,204.84,273.812,204.097z"/>
			<path id="XMLID_43_" fill="#FFFFFF" d="M300.409,210.227v-0.097c0-0.743,0.603-1.347,1.347-1.347h30.797
				c0.742,0,1.347,0.604,1.347,1.347v0.097c0,0.743-0.604,1.347-1.347,1.347h-30.797
				C301.012,211.573,300.409,210.97,300.409,210.227z"/>
			<path id="XMLID_44_" fill="#FFFFFF" d="M273.812,210.227v-0.097c0-0.743,0.603-1.347,1.347-1.347h21.274
				c0.744,0,1.347,0.604,1.347,1.347v0.097c0,0.743-0.603,1.347-1.347,1.347h-21.274
				C274.415,211.573,273.812,210.97,273.812,210.227z"/>
			<path id="XMLID_45_" fill="#FFFFFF" d="M273.812,216.356v-0.098c0-0.743,0.603-1.346,1.347-1.346h7.896
				c0.743,0,1.347,0.603,1.347,1.346v0.098c0,0.743-0.604,1.346-1.347,1.346h-7.896
				C274.415,217.702,273.812,217.099,273.812,216.356z"/>
			<path id="XMLID_46_" fill="#FFFFFF" d="M287.191,216.356v-0.098c0-0.743,0.603-1.346,1.347-1.346h44.015
				c0.742,0,1.347,0.603,1.347,1.346v0.098c0,0.743-0.604,1.346-1.347,1.346h-44.015
				C287.794,217.702,287.191,217.099,287.191,216.356z"/>
		</g>
	</g>
	<g id="XMLID_25_">
		<g id="XMLID_24_">
			<circle id="XMLID_28_" fill="#1196D4" cx="92.043" cy="175.759" r="35.677"/>
			<g id="XMLID_20_">
				<g id="XMLID_18_">
					<circle id="XMLID_1_" fill="#FFFFFF" cx="83.635" cy="193.269" r="8.645"/>
					<polygon id="XMLID_17_" fill="#1196D4" points="79.096,196.372 78.679,190.889 83.218,187.786 88.176,190.167 88.593,195.649 
						84.053,198.752 					"/>
				</g>
				<g id="XMLID_21_">
					<circle id="XMLID_23_" fill="#FFFFFF" cx="100.45" cy="158.248" r="8.645"/>
					<polygon id="XMLID_22_" fill="#1196D4" points="96.162,160.827 96.459,153.856 101.714,149.264 106.67,151.644 
						106.374,158.616 101.119,163.208 					"/>
				</g>
				<path id="XMLID_19_" fill="#FFFFFF" d="M89.623,189.273l-6.613-3.175l4.888-11.274c0.31-0.716,0.647-1.419,1.012-2.108
					l5.742-10.865l6.613,3.176l-4.713,11.103c-0.365,0.859-0.769,1.701-1.211,2.522L89.623,189.273z"/>
			</g>
		</g>
		<path id="XMLID_26_" fill="#1196D4" d="M116.825,194.953c1.275-0.591,21.744,0.343,21.744,0.343l-14.755-13.546L116.825,194.953z"
			/>
	</g>
	<g id="XMLID_159_">
		<g id="XMLID_74_">
			<g id="XMLID_157_">
				<circle id="XMLID_166_" fill="#1196D4" cx="174.982" cy="101.511" r="35.066"/>
			</g>
		</g>
		<g id="XMLID_158_">
			<rect id="XMLID_72_" x="173.811" y="71.628" fill="#FFFFFF" width="2.342" height="29.448"/>
			
				<rect id="XMLID_73_" x="160.872" y="95.609" transform="matrix(-0.5692 -0.8222 0.8222 -0.5692 163.3955 306.6817)" fill="#FFFFFF" width="2.343" height="29.85"/>
			<circle id="XMLID_156_" fill="#FFFFFF" cx="174.982" cy="101.511" r="3.228"/>
		</g>
	</g>
</g>
<g id="XMLID_231_">
	<g id="XMLID_5_">
		<g id="XMLID_6_">
			<path id="XMLID_108_" fill="#A3C7E9" d="M270.183,338.951c-2.079-32.057,11.945-65.234,35.569-84.215
				C306.484,286.955,292.6,319.562,270.183,338.951z"/>
			<path id="XMLID_107_" fill="none" stroke="#6F8BBF" stroke-linecap="round" stroke-miterlimit="10" d="M301.896,263.364
				c-9.954,18.551-18.561,37.961-25.713,57.986c-8.693,24.312-15.533,50.144-30.42,70.523"/>
		</g>
		<g id="XMLID_7_">
			<path id="XMLID_106_" fill="#A3C7E9" d="M262.729,359.117c11.956-26.747,35.688-46.956,61.853-52.675
				C313.442,335.106,288.388,356.974,262.729,359.117z"/>
			<path id="XMLID_105_" fill="none" stroke="#6F8BBF" stroke-linecap="round" stroke-miterlimit="10" d="M318.161,312.334
				c-17.871,15.728-36.044,31.013-54.518,45.847"/>
		</g>
		<g id="XMLID_8_">
			<path id="XMLID_104_" fill="#A3C7E9" d="M255.673,382.417c15.975-23.86,45.446-36.312,69.835-29.505
				C307.572,376.471,278.035,388.955,255.673,382.417z"/>
			<path id="XMLID_103_" fill="none" stroke="#6F8BBF" stroke-linecap="round" stroke-miterlimit="10" d="M319.658,354.637
				c-20.94,13.099-43.529,22.771-66.819,28.589"/>
		</g>
		<g id="XMLID_9_">
			<path id="XMLID_102_" fill="#A3C7E9" d="M264.301,351.006c5.106-26.866-2.553-56.812-19.605-76.621
				C237.705,300.787,244.373,331.724,264.301,351.006z"/>
			<path id="XMLID_101_" fill="none" stroke="#6F8BBF" stroke-linecap="round" stroke-miterlimit="10" d="M246.452,281.235
				c3.36,24.991,9.338,48.399,18.603,71.278"/>
		</g>
		<g id="XMLID_10_">
			<path id="XMLID_100_" fill="#A3C7E9" d="M255.532,373.886c-2.176-27.62-16.33-53.559-37.034-67.875
				c1.196,14.628,5.084,28.729,11.257,41.548C236.854,362.284,247.281,371.623,255.532,373.886z"/>
			<path id="XMLID_99_" fill="none" stroke="#6F8BBF" stroke-linecap="round" stroke-miterlimit="10" d="M221.568,311.602
				c8.144,23.03,19.863,44.381,34.48,62.866"/>
		</g>
	</g>
	<g id="XMLID_11_">
		<g id="XMLID_12_">
			<path id="XMLID_98_" fill="#A3C7E9" d="M415.421,367.261c11.301-29.396,37.293-53.246,65.958-60.506
				C468.818,335.753,443.181,359.128,415.421,367.261z"/>
			<path id="XMLID_97_" fill="none" stroke="#6F8BBF" stroke-linecap="round" stroke-miterlimit="10" d="M474.431,312.862
				c-16.396,12.463-31.972,26.241-46.492,41.159c-17.645,18.119-34.287,38.327-55.799,50.413"/>
		</g>
		<g id="XMLID_13_">
			<path id="XMLID_96_" fill="#A3C7E9" d="M400.566,382.18c21.534-18.948,50.791-27.264,76.256-21.684
				C455.234,381.49,424.125,390.743,400.566,382.18z"/>
			<path id="XMLID_95_" fill="none" stroke="#6F8BBF" stroke-linecap="round" stroke-miterlimit="10" d="M468.732,363.135
				c-22.245,6.723-44.574,12.916-66.981,18.593"/>
		</g>
		<g id="XMLID_14_">
			<path id="XMLID_94_" fill="#A3C7E9" d="M384.774,400.062c23.904-14.735,55.057-13.8,73.821,2.219
				C433.088,415.939,401.859,415.003,384.774,400.062z"/>
			<path id="XMLID_93_" fill="none" stroke="#6F8BBF" stroke-linecap="round" stroke-miterlimit="10" d="M452.725,401.419
				c-23.871,3.124-47.816,2.521-70.772-1.799"/>
		</g>
		<g id="XMLID_15_">
			<path id="XMLID_92_" fill="#A3C7E9" d="M405.285,375.599c15.522-21.846,21.027-51.652,14.079-76.255
				C402.355,320.004,395.569,350.284,405.285,375.599z"/>
			<path id="XMLID_91_" fill="none" stroke="#6F8BBF" stroke-linecap="round" stroke-miterlimit="10" d="M418.104,306.151
				c-7.281,23.634-11.58,46.923-12.766,71.096"/>
		</g>
		<g id="XMLID_16_">
			<path id="XMLID_90_" fill="#A3C7E9" d="M388.158,392.402c9.393-25.486,7.518-54.377-4.913-75.576
				c-4.934,13.52-7.281,27.663-7.077,41.602C376.394,374.436,381.78,387.017,388.158,392.402z"/>
			<path id="XMLID_89_" fill="none" stroke="#6F8BBF" stroke-linecap="round" stroke-miterlimit="10" d="M383.654,323.053
				c-2.24,23.838-0.635,47.645,4.708,70.071"/>
		</g>
	</g>
	<g id="XMLID_112_">
		<path id="XMLID_88_" fill="#A3C7E9" d="M95.167,315.862c-11.52-35.234-43.667-63.703-81.064-71.783
			C29.824,274.562,58.342,298.821,95.167,315.862z"/>
		<path id="XMLID_87_" fill="#A3C7E9" d="M97.117,321.329c-25.233-14.27-56.849-17.416-84.257-8.396
			C38.28,325.631,68.401,329.168,97.117,321.329z"/>
		<path id="XMLID_86_" fill="#A3C7E9" d="M104.096,328.97c-27.271-3.78-55.83,2.942-77.978,18.352
			C51.232,356.451,81.363,350.529,104.096,328.97z"/>
		<path id="XMLID_85_" fill="#A3C7E9" d="M112.599,345.66c-27.006-0.113-53.56,12.723-69.434,33.563
			c12.019,2.408,24.783,0.968,35.81-4.026C90.001,370.204,99.24,361.684,112.599,345.66z"/>
		<path id="XMLID_84_" fill="#A3C7E9" d="M131.639,373.587c-26.63-4.565-55.002,3.687-74.205,21.584
			c11.461,4.353,24.294,5.049,36.02,1.957C105.18,394.035,115.738,387.168,131.639,373.587z"/>
		<path id="XMLID_83_" fill="#A3C7E9" d="M102.889,317.531c-17.584-23.701-22.356-55.64-12.366-82.812
			c7.629,12.919,14.211,26.577,17.283,41.097C110.878,290.334,110.282,305.815,102.889,317.531z"/>
		<path id="XMLID_82_" fill="#A3C7E9" d="M113.633,340.399c-4.165-25.181,4.445-51.87,22.632-70.107
			C138.357,296.343,130.386,322.884,113.633,340.399z"/>
		<g id="XMLID_113_">
			<path id="XMLID_81_" fill="none" stroke="#6F8BBF" stroke-linecap="round" stroke-miterlimit="10" d="M22.289,250.394
				c53.52,34.243,95.376,85.284,117.471,143.274"/>
			<path id="XMLID_80_" fill="none" stroke="#6F8BBF" stroke-linecap="round" stroke-miterlimit="10" d="M92.185,247.215
				c6.51,26.434,10.471,53.42,11.811,80.487"/>
			<path id="XMLID_79_" fill="none" stroke="#6F8BBF" stroke-linecap="round" stroke-miterlimit="10" d="M132.266,280.516
				c-2.132,21.327-8.723,42.171-19.252,60.945"/>
			<path id="XMLID_78_" fill="none" stroke="#6F8BBF" stroke-linecap="round" stroke-miterlimit="10" d="M24.126,313.548
				c24.536,4.667,49.475,7.195,74.419,7.566"/>
			<path id="XMLID_77_" fill="none" stroke="#6F8BBF" stroke-linecap="round" stroke-miterlimit="10" d="M38.911,345.227
				c22.625-1.644,44.883-7.125,65.458-16.128"/>
			<path id="XMLID_76_" fill="none" stroke="#6F8BBF" stroke-linecap="round" stroke-miterlimit="10" d="M52.465,375.419
				c20.876-10.413,41.755-20.839,62.631-31.253"/>
			<path id="XMLID_75_" fill="none" stroke="#6F8BBF" stroke-linecap="round" stroke-miterlimit="10" d="M66.043,393.808
				c27.257-5.259,35.354-11.534,65.607-20.22"/>
		</g>
	</g>
</g>
<g id="XMLID_47_">
	<path id="XMLID_65_" fill="#E06A58" d="M238.599,343.885c0,0,2.359,21.62,4.998,23.354c4.719,3.113,59.333,10.309,59.333,10.309
		l-1.788,14.209c0,0-74.801,6.722-77.979,2.983c-5.516-6.484-15.21-37.767-15.21-37.767L238.599,343.885z"/>
	<path id="XMLID_64_" fill="#F2AE2E" d="M202.534,288.227l6.043-14.51c0,0,16.395,7.701,21.803,17.213
		c5.784,10.17,12.862,64.234,12.862,64.234s-28.945,6.668-34.266,3.835S202.534,288.227,202.534,288.227z"/>
</g>
<path id="XMLID_63_" fill="#0B223F" d="M156.505,220.88c-4.233-1.551-8.715-2.908-13.25-2.564
	c-4.535,0.345-9.167,2.747-10.707,6.733c-1.099,2.822-0.592,6.15-2.327,8.692c-1.659,2.435-4.955,3.447-8.036,3.652
	c-3.091,0.216-6.205-0.194-9.275,0.205c-9.479,1.26-16.244,11.559-13.131,19.994c1.239,3.359,3.781,6.57,3.2,10.071
	c-0.615,3.749-4.546,6.215-6.162,9.694c-2.144,4.632,0.42,10.244,4.653,13.401c4.233,3.145,9.738,4.34,15.081,5.138
	c7.357,1.098,14.952,1.615,22.223,0.063c7.271-1.55,14.219-5.386,17.979-11.374c1.669-2.65,2.682-5.646,4.622-8.133
	c4.007-5.139,11.106-7.132,16.696-10.772c6.108-3.996,10.589-11.773,6.991-17.86c-3.468-5.849-12.496-7.152-16.115-12.916
	c-1.498-2.38-1.853-5.213-2.822-7.81C165.133,224.488,162.764,223.174,156.505,220.88z"/>
<g id="XMLID_48_">
	<path id="XMLID_62_" fill="#F8A07B" d="M181.173,292.632c1.066,1.229,2.327,2.575,4.071,2.693c1.842,0.129,3.383-1.174,4.568-2.435
		c6.118-6.474,10.158-14.423,11.795-22.621c-1.519-0.861-2.984-1.691-4.309-2.467c-1.228-0.732-2.154-1.756-2.682-2.952
		c-0.366-0.882-0.496-1.81-0.399-2.779c0.862-8.1,1.627-12.614,4.47-20.833c-13.508-3.048-26.251-6.668-33.576-12.786
		c-0.894,3.77-1.95,11.149-4.201,18.463c-2.402,7.744-6.151,15.404-12.506,18.699C160.879,272.984,172.006,282.141,181.173,292.632z
		"/>
	<path id="XMLID_61_" fill="#E06A58" d="M194.218,262.083c-0.097,0.969,0.033,1.906,0.399,2.779
		c-7.993,9.695-25.864-2.974-33.706-17.936c2.251-7.314,3.307-14.693,4.201-18.463c7.314,6.119,20.068,9.749,33.576,12.786
		C195.845,249.469,195.08,253.972,194.218,262.083z"/>
</g>
<g id="XMLID_49_">
	<path id="XMLID_60_" fill="#FFC83C" d="M216.473,379.282c-1.767,11.699,10.858,24.291,11.17,30.538
		c-26.812,0-82.977,1.639-111.576-2.251c-1.304-7.217,12.818-23.45,12.818-39.479c0-2.123-0.086-4.45-0.259-6.948
		c-0.452-7.153-1.508-15.662-2.682-24.389c-3.188-23.407-7.433-48.441-4.298-53.634c6.141-10.114,20.5-16.987,27.62-19.938
		c2.445-1.012,4.04-1.562,4.158-1.627c8.93,15.231,27.103,28.224,33.964,27.642c1.907-0.151,7.562-2.123,11.299-20.941
		c1.455,0.83,2.909,1.595,4.352,2.338c7.099,3.695,13.756,6.744,15.674,11.493c5.062,12.507,10.029,44.036,8.93,55.25
		c-1.109,11.311-5.655,19.95-8.844,31.304c-0.743,2.66-1.421,5.483-1.971,8.521C216.688,377.839,216.581,378.551,216.473,379.282z"
		/>
	<path id="XMLID_59_" fill="#FDBA33" d="M227.644,409.82c-26.812,0-82.977,1.639-111.576-2.251
		c-1.304-7.217,12.818-23.45,12.818-39.479c0-2.123-0.086-4.45-0.259-6.948c-0.452-7.153-1.508-15.662-2.682-24.389
		c5.074,5.354,12.474-17.267,15.749-10.643c17.72,35.764,31.691,45.168,55.971,45.168c7.239,0,13.917-1.003,21.134-2.64
		c-0.743,2.66-1.421,5.483-1.971,8.521c-0.129,0.688-0.248,1.399-0.355,2.132C214.706,390.97,227.332,403.562,227.644,409.82z"/>
	<path id="XMLID_58_" fill="#FCE172" d="M203.04,270.593c-1.152,8.37-4.567,19.648-14.499,22.621
		c-13.422,4.019-32.844-21.06-39.275-30.032c2.445-1.012,4.04-1.562,4.158-1.627c8.93,15.231,27.103,28.224,33.964,27.642
		c1.907-0.151,7.562-2.123,11.299-20.941C200.143,269.073,201.597,269.838,203.04,270.593z"/>
</g>
<g id="XMLID_50_">
	<g id="XMLID_51_">
		<g id="XMLID_52_">
			<polygon id="XMLID_57_" fill="#335F73" points="208.556,397.229 208.459,406.568 375.425,407.559 375.771,396.97 			"/>
		</g>
		<g id="XMLID_53_">
			<polygon id="XMLID_56_" fill="#335F73" points="447.791,313.906 444.074,310.137 322.459,309.34 261.445,397.573 
				264.634,400.138 			"/>
			<polygon id="XMLID_55_" fill="#102D4F" points="324.807,312.604 264.634,400.138 379.572,400.708 447.791,313.906 			"/>
		</g>
	</g>
	<ellipse id="XMLID_54_" fill="#3D748C" cx="353.849" cy="361.788" rx="13.379" ry="6.689"/>
</g>
<g id="XMLID_114_">
	<g id="XMLID_115_">
		
			<ellipse id="XMLID_116_" transform="matrix(-0.9831 -0.1832 0.1832 -0.9831 400.7118 493.9321)" fill="#60C2EE" cx="223.171" cy="228.457" rx="12.356" ry="18.733"/>
	</g>
	<path id="XMLID_117_" fill="#102D4F" d="M235.334,198.797c-1.249,8.855-5.203,18.614-10.965,29.397
		c-2.026-8.833-3.318-19.594-5.106-30.355c-1.82-10.783-4.136-21.566-8.154-30.377c-0.905-1.95-1.885-3.813-2.952-5.537
		c2.381-0.226,4.794,0,7.088,0.636c3.587,0.958,6.948,2.811,9.695,5.289c4.567,4.061,7.626,9.598,9.447,15.437
		C235.884,188.133,236.153,193.282,235.334,198.797z"/>
	<g id="XMLID_118_">
		<path id="XMLID_119_" fill="#F8A07B" d="M228.57,207.953c-0.064,1.745-0.183,3.522-0.344,5.29
			c-2.457,28.653-14.489,48.312-32.898,48.312c-25.993,0-42.84-29.149-42.84-57.706c0-28.169,17.257-48.56,37.455-46.201
			c11.644,1.335,20.154,5.203,26.197,10.869c3.996,3.77,6.883,8.327,8.855,13.508c2.251,5.806,3.339,12.376,3.565,19.454
			c0,0.021,0.021,0.043,0.021,0.065C228.667,203.634,228.645,205.767,228.57,207.953z"/>
		<path id="XMLID_120_" fill="#E06A58" d="M228.57,207.953c-0.775-2.768-1.928-5.472-3.5-7.896
			c-15.329,8.015-33.598,11.106-50.919,8.176c-3.296,2.747-6.517,5.451-9.76,8.154c0.065-13.034,0.248-21.856,5.333-28.168
			c4.771-5.925,12.732-8.154,20.272-9.124c8.488-1.109,17.117-1.066,25.584,0.162c3.242,0.453,6.603,1.152,9.425,2.79
			c2.251,5.806,3.339,12.376,3.565,19.454c0,0.021,0.022,0.043,0.022,0.065C228.667,203.634,228.645,205.767,228.57,207.953z"/>
	</g>
	<path id="XMLID_121_" fill="#102D4F" d="M232.319,190.309c-3.566,3.016-8.036,5.516-13.056,7.541
		c-14.283,5.763-32.843,7.67-47.311,6.97c-7.109,15.62-9.985,21.221-11.806,34.847c-6.948-6.517-12.604-18.452-14.284-27.835
		c-1.659-9.35-1.497-19.163,1.11-28.352c4.104-14.489,14.456-22.244,21.63-26.014c1.788-0.98,3.404-1.659,4.653-2.154
		c9.167-3.544,19.498-3.221,28.902-0.345c5.127,1.594,9.447,4.287,13.077,7.605c7.336,6.625,11.871,15.598,14.8,22.32
		C230.961,186.948,231.705,188.812,232.319,190.309z"/>
	<path id="XMLID_122_" fill="#225570" d="M235.334,198.797c-0.592-3.134-1.475-6.172-2.725-9.102
		c-0.7-1.659-1.562-3.264-2.563-4.815c-3.264-5.127-8.014-9.351-13.756-11.214c-1.637-2.294-3.361-4.363-5.171-6.194
		c-6.517-6.625-14.165-10.417-22.266-11.742c-6.743-1.088-13.756-0.474-20.229,1.724c1.788-0.98,3.403-1.659,4.653-2.154
		c9.167-3.544,19.497-3.221,28.901-0.345c5.127,1.594,9.447,4.288,13.077,7.605c3.587,0.958,6.948,2.811,9.695,5.289
		c4.567,4.061,7.626,9.598,9.447,15.437C235.884,188.133,236.153,193.282,235.334,198.797z"/>
	<g id="XMLID_123_">
		<g id="XMLID_124_">
			<path id="XMLID_125_" fill="none" stroke="#102D4F" stroke-width="2" stroke-linecap="round" stroke-miterlimit="10" d="
				M180.236,216.366c4.804-2.747,9.792-3.985,16.783-1.433"/>
			<path id="XMLID_126_" fill="none" stroke="#102D4F" stroke-width="2" stroke-linecap="round" stroke-miterlimit="10" d="
				M213.134,216.173c4.115-3.07,10.212-3.383,13.39,0"/>
			<path id="XMLID_127_" fill="none" stroke="#CC464E" stroke-width="2" stroke-linecap="round" stroke-miterlimit="10" d="
				M208.168,231.835c0.419,2.176,0.193,6.991-0.841,9.156"/>
			<ellipse id="XMLID_128_" fill="#262D40" cx="191.934" cy="230.176" rx="1.982" ry="3.124"/>
			<ellipse id="XMLID_129_" fill="#262D40" cx="217.841" cy="228.722" rx="1.982" ry="3.124"/>
		</g>
		<g id="XMLID_130_">
			<path id="XMLID_131_" fill="#CC464E" d="M205.711,245.247c0,0-0.388,0.753-1.131,1.777c-1.163,1.562-3.145,3.716-5.849,4.557
				h-0.011c-1.142,0.366-2.38,0.496-3.76,0.248c-4.05-0.722-5.117-4.46-5.31-7.336c-0.043-0.561-0.043-1.077-0.033-1.551
				c0.021-1.164,0.151-1.939,0.151-1.939C196.221,244.557,205.711,245.247,205.711,245.247z"/>
			<path id="XMLID_132_" fill="#FFFFFF" d="M205.711,245.247c0,0-0.388,0.753-1.131,1.777c-3.296-0.043-10.039-1.734-14.962-4.083
				c0.021-1.164,0.151-1.939,0.151-1.939C196.221,244.557,205.711,245.247,205.711,245.247z"/>
			<path id="XMLID_133_" fill="#E8719B" d="M198.721,251.569c-1.142,0.366-2.38,0.495-3.76,0.248
				c-4.05-0.722-5.117-4.459-5.31-7.335c1.96,0.237,3.856,0.991,5.429,2.186C196.728,247.928,197.988,249.641,198.721,251.569z"/>
		</g>
	</g>
	<g id="XMLID_134_">
		<path id="XMLID_135_" fill="#4C82C3" d="M160.211,211.422c0,0-0.226-13.433,5.364-26.779c7.012-16.751,21.307-23.914,35.17-24.399
			c16.708-0.592,27.167,10.622,27.167,10.622s-5.44-9.598-16.169-12.356c-7.045-1.81-17.677-2.101-26.208,1.368
			c-8.79,3.565-19.745,13.465-23.709,23.924c-3.953,10.46-5.881,26.747-5.881,26.747L160.211,211.422z"/>
		<g id="XMLID_136_">
			
				<ellipse id="XMLID_137_" transform="matrix(-0.1034 -0.9946 0.9946 -0.1034 -51.3344 407.2639)" fill="#60C2EE" cx="157.892" cy="226.769" rx="19.733" ry="13.023"/>
			
				<ellipse id="XMLID_138_" transform="matrix(-0.1486 -0.9889 0.9889 -0.1486 -48.2915 414.8243)" fill="#4C82C3" cx="154.43" cy="228.201" rx="14.876" ry="8.456"/>
		</g>
		<g id="XMLID_139_">
			<ellipse id="XMLID_140_" fill="#3B92C9" cx="200.854" cy="257.634" rx="6.937" ry="4.32"/>
			<path id="XMLID_141_" fill="none" stroke="#3B92C9" stroke-width="2" stroke-linecap="round" stroke-miterlimit="10" d="
				M166.006,243.189c0,0,10.19,13.099,27.911,14.446"/>
		</g>
	</g>
</g>
<g id="XMLID_142_">
	<g id="XMLID_143_">
		<g id="XMLID_144_">
			<g id="XMLID_145_">
				<path id="XMLID_146_" fill="#F8A07B" d="M208.459,372.291l-0.668,17.225c0,0-62.294,18.668-72.582,12.765
					c-5.02-2.887-9.706-18.765-13.207-34.266c-3.663-16.287-6.011-32.144-6.011-32.144l36.518-7.153c0,0,0.021,22.266,1.26,35.139
					c0.441,4.794,1.077,8.284,1.928,8.854C158.918,374.834,208.459,372.291,208.459,372.291z"/>
				<path id="XMLID_147_" fill="#E06A58" d="M153.769,363.836c-6.636,2.154-19.444,5.482-31.767,4.169
					c-3.663-16.288-6.011-32.145-6.011-32.145l36.518-7.152C152.509,328.697,152.53,350.963,153.769,363.836z"/>
			</g>
			<g id="XMLID_148_">
				<path id="XMLID_149_" fill="#F8A07B" d="M206.682,372.464c9.263-1.982,24.947-6.743,31.454-8.381
					c4.622-1.164,16.654,5.062,19.832,10.934c1.39,2.563,2.703,17.084-2.111,15.587c-2.413-0.754-2.015-6.979-2.769-9.522
					c-0.614-2.067-2.574-4.072-5.558-5.795c1.993,4.965,1.917,9.296,1.702,14.66c-0.043,1.186-0.119,2.424-0.689,3.447
					c-0.582,1.023-1.832,1.756-2.909,1.304c-1.099-0.453-1.476-1.82-1.724-3.017c-0.851-4.136-1.713-8.272-2.057-12.947
					c0.086,4.599-0.011,9.21-0.302,13.799c-0.215,3.511-1.96,5.439-4.104,4.826c-0.958-0.27-1.346-1.153-1.756-2.316
					c-0.646,2.251-2.262,4.74-4.352,3.791c-1.271-0.57-2.057-5.159-1.831-9.878c-4.007,2.489-8.532,3.544-13.746,3.782
					c-4.675,0.214-9.458-0.658-12.269-3.836C203.773,383.937,205.41,376.59,206.682,372.464z"/>
				<path id="XMLID_150_" fill="none" stroke="#CC464E" stroke-linecap="round" stroke-miterlimit="10" d="M235.787,394.331
					c0.312-3.728-0.011-7.508-0.958-11.105"/>
			</g>
		</g>
		<path id="XMLID_151_" fill="#FFC83C" d="M148.405,292.589c-2.65-7.465-12.356-22.739-12.356-22.739s-14.812,6.161-20.068,16.621
			c-8.898,17.71-4.374,68.553-4.374,68.553c11.989,5.02,36.054,5.096,46.298,3.652C157.905,358.676,153.715,307.509,148.405,292.589
			z"/>
	</g>
	<path id="XMLID_152_" fill="none" stroke="#F2AE2E" stroke-linecap="round" stroke-miterlimit="10" d="M150.29,295.713
		c4.04,19.336,6.204,37.369,6.894,55.034"/>
</g>
<rect id="XMLID_3_" x="42.591" y="404.488" fill="#102D4F" width="424.719" height="10.654"/>
</svg>
